<svg width="18" height="18" viewBox="0 0 18 18" fill="none" xmlns="http://www.w3.org/2000/svg">
<path d="M13.8445 9.6543C13.8445 7.40541 15.7306 6.31723 15.8032 6.24469C14.715 4.72125 13.119 4.50361 12.5387 4.43107C11.1603 4.28598 9.78197 5.22906 9.12906 5.22906C8.40362 5.22906 7.31544 4.43107 6.15473 4.43107C4.63128 4.43107 3.25293 5.30161 2.45494 6.67996C0.858954 9.43666 2.01967 13.4992 3.54311 15.7481C4.34111 16.8362 5.21165 18.0695 6.37236 17.997C7.53308 17.9244 7.96835 17.2715 9.3467 17.2715C10.7251 17.2715 11.0878 17.997 12.321 17.997C13.5543 17.997 14.3523 16.9088 15.0777 15.8206C15.9483 14.5873 16.311 13.3541 16.311 13.2815C16.2385 13.209 13.8445 12.3385 13.8445 9.6543Z" fill="#151515"/>
<path d="M11.5956 2.98028C12.176 2.18229 12.6113 1.16666 12.5387 0.0784912C11.6682 0.151036 10.5075 0.65885 9.92711 1.45684C9.34675 2.10975 8.83894 3.19792 8.98403 4.21355C9.92711 4.28609 10.9427 3.70573 11.5956 2.98028Z" fill="#151515"/>
</svg>
