<svg width="18" height="18" viewBox="0 0 18 18" fill="none" xmlns="http://www.w3.org/2000/svg">
<path fill-rule="evenodd" clip-rule="evenodd" d="M7.13705 0.968939C7.43035 1.26143 7.43101 1.7363 7.13852 2.0296L4.42352 4.7521C4.13103 5.04539 3.65615 5.04605 3.36286 4.75356C3.06956 4.46107 3.06891 3.9862 3.3614 3.6929L6.0764 0.970402C6.36888 0.677105 6.84376 0.67645 7.13705 0.968939Z" fill="white"/>
<path fill-rule="evenodd" clip-rule="evenodd" d="M10.8629 0.968939C11.1562 0.67645 11.631 0.677105 11.9235 0.970402L14.6385 3.6929C14.931 3.9862 14.9304 4.46107 14.6371 4.75356C14.3438 5.04605 13.8689 5.04539 13.5764 4.7521L10.8614 2.0296C10.5689 1.7363 10.5696 1.26143 10.8629 0.968939Z" fill="white"/>
<path fill-rule="evenodd" clip-rule="evenodd" d="M2.40314 5.241C2.39009 5.24879 2.25 5.33241 2.25 5.8877C2.25 6.24317 2.29236 6.43511 2.3295 6.53067C2.34642 6.57421 2.35947 6.59045 2.36131 6.59267C2.36217 6.59371 2.36066 6.59234 2.36106 6.59258C2.36931 6.59733 2.41802 6.62088 2.57063 6.6321C2.68783 6.64071 2.80654 6.63982 2.96314 6.63865C3.024 6.63819 3.09057 6.6377 3.165 6.6377H14.835C14.9094 6.6377 14.976 6.63819 15.0369 6.63865C15.1935 6.63982 15.3122 6.64071 15.4294 6.6321C15.582 6.62088 15.6307 6.59733 15.6389 6.59258C15.6393 6.59234 15.6378 6.59371 15.6387 6.59267C15.6405 6.59045 15.6536 6.57421 15.6705 6.53067C15.7076 6.43511 15.75 6.24317 15.75 5.8877C15.75 5.33241 15.6099 5.24879 15.5969 5.241C15.5965 5.24079 15.5962 5.24063 15.5961 5.24052C15.5652 5.21984 15.5 5.18922 15.3646 5.16734C15.2271 5.1451 15.057 5.1377 14.835 5.1377H3.165C2.94296 5.1377 2.77294 5.1451 2.63536 5.16734C2.50002 5.18922 2.43481 5.21984 2.40393 5.24052C2.40377 5.24063 2.40351 5.24079 2.40314 5.241ZM1.56919 3.99424C2.0844 3.64917 2.72678 3.6377 3.165 3.6377H14.835C15.2732 3.6377 15.9156 3.64917 16.4308 3.99424C17.0267 4.39336 17.25 5.07084 17.25 5.8877C17.25 6.76226 17.0537 7.50848 16.3879 7.89219C16.0952 8.06088 15.7854 8.10998 15.5393 8.12806C15.3558 8.14154 15.1499 8.13988 14.9756 8.13848C14.9257 8.13808 14.8784 8.1377 14.835 8.1377H3.165C3.12157 8.1377 3.07429 8.13808 3.02443 8.13848C2.85009 8.13988 2.64415 8.14154 2.4607 8.12806C2.21463 8.10998 1.90475 8.06088 1.61206 7.89219C0.946278 7.50848 0.75 6.76226 0.75 5.8877C0.75 5.07084 0.973301 4.39336 1.56919 3.99424Z" fill="white"/>
<path fill-rule="evenodd" clip-rule="evenodd" d="M15.5163 6.76332C15.9231 6.84133 16.1896 7.23436 16.1116 7.64116L14.8516 14.2109C14.8516 14.211 14.8516 14.2109 14.8516 14.2109C14.7197 14.8996 14.5399 15.721 13.9572 16.3314C13.3425 16.9756 12.4278 17.2499 11.1675 17.2499H6.64499C5.45067 17.2499 4.54618 16.951 3.9157 16.3125C3.30636 15.6954 3.06981 14.8738 2.94249 14.102L1.88478 7.62069C1.81807 7.21189 2.09539 6.8264 2.50419 6.75969C2.913 6.69297 3.29849 6.97029 3.3652 7.3791L4.42249 13.8578C4.42253 13.858 4.42246 13.8576 4.42249 13.8578C4.53517 14.5406 4.70746 14.9795 4.98304 15.2585C5.23755 15.5163 5.69432 15.7499 6.64499 15.7499H11.1675C12.2397 15.7499 12.6638 15.5142 12.8721 15.2958C13.1126 15.0439 13.2402 14.6502 13.3784 13.9288L14.6384 7.35863C14.7164 6.95183 15.1095 6.6853 15.5163 6.76332Z" fill="white"/>
</svg>
