<svg width="24" height="24" viewBox="0 0 24 24" fill="none" xmlns="http://www.w3.org/2000/svg">
<path fill-rule="evenodd" clip-rule="evenodd" d="M2.49921 10.5657C2.15496 8.15595 4.02481 6 6.459 6H17.5409C19.9751 6 21.845 8.15595 21.5007 10.5657L20.4805 17.7071C20.1286 20.1704 18.019 22 15.5308 22H8.46916C5.9809 22 3.8713 20.1704 3.51941 17.7071L2.49921 10.5657ZM6.459 8C5.2419 8 4.30698 9.07798 4.4791 10.2828L5.49931 17.4243C5.71044 18.9022 6.9762 20 8.46916 20H15.5308C17.0237 20 18.2895 18.9022 18.5006 17.4243L19.5208 10.2828C19.693 9.07798 18.758 8 17.5409 8H6.459Z" fill="#4A465C"/>
<path fill-rule="evenodd" clip-rule="evenodd" d="M9.44716 2.10566C9.94114 2.35265 10.1414 2.95332 9.89438 3.4473L8.10552 7.02501C7.85853 7.51899 7.25786 7.71921 6.76388 7.47222C6.2699 7.22523 6.06968 6.62456 6.31667 6.13058L8.10552 2.55287C8.35251 2.0589 8.95318 1.85867 9.44716 2.10566Z" fill="#4A465C"/>
<path fill-rule="evenodd" clip-rule="evenodd" d="M14.5529 2.10552C15.0469 1.85853 15.6475 2.05876 15.8945 2.55273L17.6834 6.13044C17.9304 6.62442 17.7301 7.22509 17.2362 7.47208C16.7422 7.71907 16.1415 7.51885 15.8945 7.02487L14.1057 3.44716C13.8587 2.95318 14.0589 2.35251 14.5529 2.10552Z" fill="#4A465C"/>
</svg>
