<svg width="22" height="22" viewBox="0 0 22 22" fill="none" xmlns="http://www.w3.org/2000/svg">
<path d="M8.16656 19.3332C7.68033 19.3332 7.21401 19.14 6.8702 18.7962C6.52638 18.4524 6.33323 17.9861 6.33323 17.4998C6.33323 17.0136 6.52638 16.5473 6.8702 16.2035C7.21401 15.8597 7.68033 15.6665 8.16656 15.6665C8.65279 15.6665 9.1191 15.8597 9.46292 16.2035C9.80674 16.5473 9.99989 17.0136 9.99989 17.4998C9.99989 17.9861 9.80674 18.4524 9.46292 18.7962C9.1191 19.14 8.65279 19.3332 8.16656 19.3332ZM14.5832 19.3332C14.097 19.3332 13.6307 19.14 13.2869 18.7962C12.943 18.4524 12.7499 17.9861 12.7499 17.4998C12.7499 17.0136 12.943 16.5473 13.2869 16.2035C13.6307 15.8597 14.097 15.6665 14.5832 15.6665C15.0695 15.6665 15.5358 15.8597 15.8796 16.2035C16.2234 16.5473 16.4166 17.0136 16.4166 17.4998C16.4166 17.9861 16.2234 18.4524 15.8796 18.7962C15.5358 19.14 15.0695 19.3332 14.5832 19.3332ZM2.63173 6.42925C2.40289 6.42187 2.1859 6.32578 2.02663 6.1613C1.86737 5.99681 1.77832 5.77683 1.77832 5.54788C1.77832 5.31892 1.86737 5.09895 2.02663 4.93446C2.1859 4.76998 2.40289 4.67388 2.63173 4.6665H3.68681C4.51364 4.6665 5.22864 5.24034 5.40831 6.047L6.55689 11.2188C6.73656 12.0255 7.45156 12.5993 8.27839 12.5993H15.1644L16.4862 7.31017H7.91998C7.69329 7.29983 7.47932 7.2025 7.32257 7.03843C7.16581 6.87436 7.07834 6.65617 7.07834 6.42925C7.07834 6.20234 7.16581 5.98415 7.32257 5.82008C7.47932 5.65601 7.69329 5.55868 7.91998 5.54834H16.4862C16.7542 5.54826 17.0187 5.60928 17.2595 5.72675C17.5004 5.84423 17.7113 6.01507 17.8762 6.22629C18.0411 6.43751 18.1557 6.68355 18.2112 6.9457C18.2668 7.20785 18.2618 7.47922 18.1967 7.73917L16.8749 13.0265C16.7796 13.408 16.5595 13.7467 16.2495 13.9887C15.9396 14.2307 15.5576 14.3622 15.1644 14.3621H8.27839C7.47612 14.3622 6.69781 14.0887 6.07199 13.5867C5.44617 13.0847 5.01028 12.3843 4.83631 11.6011L3.68681 6.42925H2.63173Z" fill="white"/>
</svg>
