<svg width="20" height="20" viewBox="0 0 20 20" fill="none" xmlns="http://www.w3.org/2000/svg">
<path fill-rule="evenodd" clip-rule="evenodd" d="M3.98959 3.98959C5.52669 2.45249 7.65307 1.5 10 1.5C12.3469 1.5 14.4733 2.45249 16.0104 3.98959C17.5475 5.52669 18.5 7.65307 18.5 10C18.5 12.3469 17.5475 14.4733 16.0104 16.0104C14.4733 17.5475 12.3469 18.5 10 18.5C7.65307 18.5 5.52669 17.5475 3.98959 16.0104C2.45249 14.4733 1.5 12.3469 1.5 10C1.5 7.65307 2.45249 5.52669 3.98959 3.98959ZM10 3.5C8.2048 3.5 6.58117 4.22644 5.40381 5.40381C4.22644 6.58117 3.5 8.2048 3.5 10C3.5 11.7952 4.22644 13.4188 5.40381 14.5962C6.58117 15.7736 8.2048 16.5 10 16.5C11.7952 16.5 13.4188 15.7736 14.5962 14.5962C15.7736 13.4188 16.5 11.7952 16.5 10C16.5 8.2048 15.7736 6.58117 14.5962 5.40381C13.4188 4.22644 11.7952 3.5 10 3.5Z" fill="#7E8A95"/>
<path fill-rule="evenodd" clip-rule="evenodd" d="M10 5.66663C10.5523 5.66663 11 6.11434 11 6.66663V9.99996C11 10.5522 10.5523 11 10 11C9.44772 11 9 10.5522 9 9.99996L9 6.66663C9 6.11434 9.44772 5.66663 10 5.66663Z" fill="#7E8A95"/>
<path fill-rule="evenodd" clip-rule="evenodd" d="M9.29289 9.29289C9.68342 8.90237 10.3166 8.90237 10.7071 9.29289L12.3738 10.9596C12.7643 11.3501 12.7643 11.9832 12.3738 12.3738C11.9832 12.7643 11.3501 12.7643 10.9596 12.3738L9.29289 10.7071C8.90237 10.3166 8.90237 9.68342 9.29289 9.29289Z" fill="#7E8A95"/>
</svg>
