<svg width="18" height="19" viewBox="0 0 18 19" fill="none" xmlns="http://www.w3.org/2000/svg">
<path fill-rule="evenodd" clip-rule="evenodd" d="M17.5069 10.6144L13.3827 12.7346L10.2766 9.82717L13.2503 7.04372L13.3145 7.07586L13.3149 7.07543L13.3669 7.1021L13.4486 7.14305L13.4479 7.14372L17.5067 9.22952C17.8355 9.38338 17.9999 9.61417 17.9999 9.84497C17.9999 9.87054 17.9979 9.89612 17.9938 9.92159C17.9979 9.94732 18 9.97316 18 9.99899C18 10.2298 17.8356 10.4606 17.5069 10.6144ZM12.2992 6.56722L1.64571 1.22973L1.64384 1.22877C1.40168 1.07766 1.23879 1.00075 0.843759 0.998047L9.54647 9.14381L12.2992 6.56722ZM8.81639 9.82717L0.0361122 1.6088C0.0127895 1.68376 0 1.76279 0 1.84422V9.92206V18.0793L8.81639 9.82717ZM0.53948 18.9411C0.630146 18.9791 0.726032 19 0.821918 19C1.17831 19 1.41107 18.8843 1.57381 18.8034C1.59873 18.791 1.62201 18.7794 1.64384 18.7692L12.4402 13.2191L9.54647 10.5105L0.53948 18.9411Z" fill="#6156E7"/>
</svg>
