<svg width="18" height="18" viewBox="0 0 18 18" fill="none" xmlns="http://www.w3.org/2000/svg">
<path fill-rule="evenodd" clip-rule="evenodd" d="M10.5232 3.30713C9.62478 2.56429 8.37522 2.56429 7.47679 3.30713L3.43724 6.64706C3.00898 7.00115 2.75 7.55418 2.75 8.14972V13.3582C2.75 14.4322 3.56186 15.25 4.5 15.25H5.75C6.02614 15.25 6.25 15.0261 6.25 14.75V12.5609C6.25 10.993 7.45286 9.66903 9 9.66903C10.5471 9.66903 11.75 10.993 11.75 12.5609V14.75C11.75 15.0261 11.9739 15.25 12.25 15.25H13.5C14.4381 15.25 15.25 14.4322 15.25 13.3582V8.14972C15.25 7.55418 14.991 7.00115 14.5628 6.64706L10.5232 3.30713ZM6.83957 2.53644C8.1078 1.48785 9.8922 1.48785 11.1604 2.53644L15.2 5.87637C15.8679 6.42858 16.25 7.26907 16.25 8.14972V13.3582C16.25 14.926 15.0471 16.25 13.5 16.25H12.25C11.4216 16.25 10.75 15.5784 10.75 14.75V12.5609C10.75 11.4868 9.93814 10.669 9 10.669C8.06186 10.669 7.25 11.4868 7.25 12.5609V14.75C7.25 15.5784 6.57843 16.25 5.75 16.25H4.5C2.95286 16.25 1.75 14.926 1.75 13.3582V8.14972C1.75 7.26907 2.13215 6.42858 2.80003 5.87637L3.0912 6.22854L2.80003 5.87637L6.83957 2.53644Z" fill="#6156E7"/>
</svg>
