<svg width="11" height="12" viewBox="0 0 11 12" fill="none" xmlns="http://www.w3.org/2000/svg">
<path fill-rule="evenodd" clip-rule="evenodd" d="M5.17942 0.755506C5.2909 0.755332 5.41083 0.755386 5.54025 0.755444L5.75356 0.755506C7.46238 0.755506 7.66491 0.76164 8.33972 0.792307C8.96372 0.82084 9.30239 0.925108 9.528 1.01271C9.82667 1.12871 10.0396 1.26738 10.2635 1.49138C10.4875 1.71538 10.6261 1.92872 10.7424 2.22739C10.83 2.45272 10.9344 2.79139 10.9628 3.4154C10.9935 4.09007 11.0001 4.29274 11.0001 6.00076C11.0001 7.70878 10.9935 7.91145 10.9628 8.58612C10.9343 9.21013 10.83 9.5488 10.7424 9.77413C10.6264 10.0728 10.4875 10.2855 10.2635 10.5093C10.0395 10.7333 9.8268 10.872 9.528 10.988C9.30266 11.076 8.96372 11.18 8.33972 11.2085C7.66504 11.2392 7.46238 11.2459 5.75356 11.2459C4.04461 11.2459 3.84207 11.2392 3.1674 11.2085C2.54339 11.1797 2.20472 11.0755 1.97898 10.9879C1.68031 10.8719 1.46698 10.7332 1.24298 10.5092C1.01897 10.2852 0.880307 10.0724 0.764039 9.7736C0.676438 9.54826 0.572037 9.20959 0.543636 8.58559C0.512969 7.91091 0.506836 7.70825 0.506836 5.99916C0.506836 4.29008 0.512969 4.08847 0.543636 3.4138C0.57217 2.78979 0.676438 2.45112 0.764039 2.22552C0.88004 1.92685 1.01897 1.71352 1.24298 1.48951C1.46698 1.26551 1.68031 1.12684 1.97898 1.01058C2.20459 0.922575 2.54339 0.818574 3.1674 0.789907C3.7578 0.76324 3.98661 0.75524 5.17942 0.753906V0.755506ZM9.16986 1.81817C8.74585 1.81817 8.40185 2.16177 8.40185 2.58591C8.40185 3.00991 8.74585 3.35392 9.16986 3.35392C9.59386 3.35392 9.93786 3.00991 9.93786 2.58591C9.93786 2.16191 9.59386 1.8179 9.16986 1.8179V1.81817ZM2.46692 6.00224C2.46692 4.1872 3.93846 2.71561 5.75348 2.71554C7.56857 2.71554 9.03978 4.18715 9.03978 6.00224C9.03978 7.81733 7.5687 9.28827 5.75362 9.28827C3.93853 9.28827 2.46692 7.81733 2.46692 6.00224Z" fill="#CCCCD9"/>
<path d="M5.75372 3.8689C6.93186 3.8689 7.88707 4.82397 7.88707 6.00225C7.88707 7.1804 6.93186 8.13561 5.75372 8.13561C4.57544 8.13561 3.62036 7.1804 3.62036 6.00225C3.62036 4.82397 4.57544 3.8689 5.75372 3.8689V3.8689Z" fill="#CCCCD9"/>
</svg>
