<svg width="20" height="20" viewBox="0 0 20 20" fill="none" xmlns="http://www.w3.org/2000/svg">
<path fill-rule="evenodd" clip-rule="evenodd" d="M14.3771 13.8824C14.0741 14.2288 13.5476 14.2639 13.2012 13.9608C12.8549 13.6577 12.8198 13.1313 13.1229 12.7849L14.8302 10.8337L6.66667 10.8337C6.20643 10.8337 5.83333 10.4606 5.83333 10.0003C5.83333 9.54009 6.20643 9.167 6.66667 9.167L14.8302 9.16699L13.1229 7.21575C12.8198 6.86938 12.8549 6.34292 13.2012 6.03985C13.5476 5.73678 14.0741 5.77188 14.3771 6.11824L17.2938 9.45157C17.5687 9.76576 17.5687 10.2349 17.2938 10.5491L14.3771 13.8824ZM6.66667 3.33366C7.12691 3.33366 7.5 2.96056 7.5 2.50033C7.5 2.04009 7.12691 1.66699 6.66667 1.66699L4.16667 1.66699C3.24619 1.66699 2.5 2.41319 2.5 3.33366L2.5 16.667C2.5 17.5875 3.24619 18.3337 4.16667 18.3337L6.66667 18.3337C7.12691 18.3337 7.5 17.9606 7.5 17.5003C7.5 17.0401 7.12691 16.667 6.66667 16.667L4.16667 16.667L4.16667 3.33366L6.66667 3.33366Z" fill="#AFB8C0"/>
</svg>
