<svg width="20" height="20" viewBox="0 0 20 20" fill="none" xmlns="http://www.w3.org/2000/svg">
<path fill-rule="evenodd" clip-rule="evenodd" d="M1.83325 10C1.83325 9.17157 2.50482 8.5 3.33325 8.5H16.6666C17.495 8.5 18.1666 9.17157 18.1666 10C18.1666 10.8284 17.495 11.5 16.6666 11.5H3.33325C2.50482 11.5 1.83325 10.8284 1.83325 10Z" fill="#F8F8F8"/>
<path fill-rule="evenodd" clip-rule="evenodd" d="M10 1.83331C10.8284 1.83331 11.5 2.50489 11.5 3.33331L11.5 16.6666C11.5 17.4951 10.8284 18.1666 10 18.1666C9.17157 18.1666 8.5 17.4951 8.5 16.6666L8.5 3.33331C8.5 2.50489 9.17157 1.83331 10 1.83331Z" fill="#F8F8F8"/>
</svg>
