<svg width="17" height="16" viewBox="0 0 17 16" fill="none" xmlns="http://www.w3.org/2000/svg">
<path fill-rule="evenodd" clip-rule="evenodd" d="M2.78336 3.33398C2.78336 2.91977 3.11914 2.58398 3.53336 2.58398H12.8667C13.2809 2.58398 13.6167 2.91977 13.6167 3.33398C13.6167 3.7482 13.2809 4.08398 12.8667 4.08398H3.53336C3.11914 4.08398 2.78336 3.7482 2.78336 3.33398Z" fill="#EA1D27"/>
<path fill-rule="evenodd" clip-rule="evenodd" d="M5.96854 2.22222C5.96854 1.68528 6.40382 1.25 6.94076 1.25L9.45928 1.25C9.99622 1.25 10.4315 1.68528 10.4315 2.22222C10.4315 2.42166 10.5932 2.58333 10.7926 2.58333H10.8667V4.08333H10.7926C9.94808 4.08333 9.23492 3.52081 9.0074 2.75L7.39265 2.75C7.16512 3.52081 6.45197 4.08333 5.60743 4.08333H5.53336V2.58333L5.60743 2.58333C5.80687 2.58333 5.96854 2.42166 5.96854 2.22222Z" fill="#EA1D27"/>
<path fill-rule="evenodd" clip-rule="evenodd" d="M4.13774 5.25263C4.55052 5.21823 4.91303 5.52497 4.94743 5.93776L5.46127 12.1038C5.51526 12.7517 6.05685 13.25 6.70696 13.25H9.69309C10.3432 13.25 10.8848 12.7517 10.9388 12.1038L11.4526 5.93776C11.487 5.52497 11.8495 5.21823 12.2623 5.25263C12.6751 5.28703 12.9818 5.64954 12.9474 6.06233L12.4336 12.2284C12.3148 13.6537 11.1233 14.75 9.69309 14.75H6.70696C5.27671 14.75 4.08523 13.6537 3.96645 12.2284L3.45261 6.06233C3.41822 5.64954 3.72496 5.28703 4.13774 5.25263Z" fill="#EA1D27"/>
</svg>
