<svg width="60" height="60" viewBox="0 0 60 60" fill="none" xmlns="http://www.w3.org/2000/svg">
<g clip-path="url(#clip0_1389_5639)">
<path d="M49.2119 44.5938V44.671H49.2865C49.3005 44.6712 49.3143 44.6678 49.3265 44.6611C49.3313 44.6578 49.3353 44.6534 49.3379 44.6482C49.3405 44.6431 49.3417 44.6374 49.3415 44.6316C49.3417 44.626 49.3405 44.6204 49.3379 44.6154C49.3352 44.6103 49.3313 44.606 49.3265 44.6029C49.3144 44.5959 49.3005 44.5925 49.2865 44.5931H49.2119V44.5938ZM49.2873 44.5393C49.3193 44.5374 49.3509 44.5462 49.3769 44.5643C49.3873 44.5725 49.3955 44.583 49.401 44.5949C49.4065 44.6067 49.409 44.6196 49.4083 44.6326C49.4088 44.6437 49.4068 44.6549 49.4024 44.6652C49.3981 44.6755 49.3915 44.6849 49.3831 44.6925C49.3631 44.7093 49.3379 44.7194 49.3115 44.7213L49.4115 44.8312H49.3345L49.2425 44.722H49.2127V44.8312H49.1483V44.5395H49.2883L49.2873 44.5393ZM49.2673 44.9318C49.3011 44.9321 49.3345 44.9256 49.3655 44.9125C49.3953 44.9002 49.4225 44.8824 49.4455 44.8603C49.4685 44.8382 49.4869 44.812 49.4997 44.7832C49.5259 44.7221 49.5259 44.6534 49.4997 44.5923C49.4867 44.5636 49.4684 44.5374 49.4455 44.5152C49.4225 44.493 49.3953 44.4753 49.3655 44.4629C49.3343 44.4506 49.3009 44.4444 49.2673 44.4448C49.233 44.4445 49.1991 44.4506 49.1673 44.4629C49.1368 44.4751 49.109 44.4928 49.0855 44.5152C49.0501 44.5502 49.0262 44.5944 49.0167 44.6424C49.0072 44.6904 49.0125 44.74 49.0321 44.7851C49.0443 44.814 49.0624 44.8403 49.0855 44.8622C49.109 44.8846 49.1368 44.9023 49.1673 44.9145C49.1989 44.9275 49.2329 44.934 49.2673 44.9337V44.9318ZM49.2673 44.3746C49.3552 44.3745 49.4396 44.4078 49.5023 44.4672C49.5325 44.4957 49.5566 44.5297 49.5731 44.5672C49.5902 44.6058 49.599 44.6473 49.599 44.6892C49.599 44.7311 49.5902 44.7726 49.5731 44.8111C49.5562 44.8485 49.5322 44.8824 49.5023 44.9112C49.4716 44.9396 49.4359 44.9624 49.3969 44.9787C49.3559 44.9955 49.3118 45.004 49.2673 45.0037C49.2222 45.004 49.1776 44.9955 49.1361 44.9787C49.0966 44.9628 49.0606 44.9399 49.0299 44.9112C49 44.8813 48.9763 44.8463 48.9601 44.8078C48.943 44.7693 48.9342 44.7278 48.9342 44.6859C48.9342 44.644 48.943 44.6025 48.9601 44.5639C48.9766 44.5264 49.0007 44.4924 49.0309 44.4639C49.0612 44.4347 49.0973 44.4117 49.1371 44.3964C49.1786 44.3796 49.2232 44.371 49.2683 44.3713L49.2673 44.3746ZM18.6433 43.248C18.6433 42.6918 19.0213 42.2349 19.6391 42.2349C20.2295 42.2349 20.6279 42.6721 20.6279 43.248C20.6279 43.824 20.2295 44.2612 19.6391 44.2612C19.0213 44.2612 18.6433 43.8043 18.6433 43.248V43.248ZM21.3009 43.248V41.6651H20.5871V42.0507C20.3607 41.7658 20.0173 41.587 19.5503 41.587C18.6303 41.587 17.9083 42.2827 17.9083 43.2488C17.9083 44.215 18.6299 44.9106 19.5503 44.9106C20.0171 44.9106 20.3607 44.7317 20.5871 44.4469V44.8312H21.3001V43.248H21.3009ZM45.4193 43.248C45.4193 42.6918 45.7973 42.2349 46.4153 42.2349C47.0063 42.2349 47.4041 42.6721 47.4041 43.248C47.4041 43.824 47.0063 44.2612 46.4153 44.2612C45.7975 44.2612 45.4193 43.8043 45.4193 43.248ZM48.0777 43.248V40.3945H47.3633V42.0507C47.1369 41.7658 46.7935 41.587 46.3265 41.587C45.4065 41.587 44.6845 42.2827 44.6845 43.2488C44.6845 44.215 45.4061 44.9106 46.3265 44.9106C46.7935 44.9106 47.1369 44.7317 47.3633 44.4469V44.8312H48.0777V43.248ZM30.1601 42.2023C30.6201 42.2023 30.9155 42.4803 30.9909 42.9698H29.2877C29.3639 42.5129 29.6517 42.2023 30.1603 42.2023H30.1601ZM30.1745 41.5853C29.2125 41.5853 28.5395 42.2601 28.5395 43.2471C28.5395 44.2533 29.2395 44.9089 30.2223 44.9089C30.7167 44.9089 31.1695 44.7899 31.5679 44.4654L31.2181 43.9555C30.9429 44.1675 30.5925 44.2865 30.2631 44.2865C29.8031 44.2865 29.3843 44.0812 29.2813 43.5114H31.7187C31.7257 43.4258 31.7329 43.3394 31.7329 43.2469C31.7257 42.2603 31.0929 41.5851 30.1741 41.5851L30.1745 41.5853ZM38.7921 43.2469C38.7921 42.6907 39.1701 42.2337 39.7879 42.2337C40.3783 42.2337 40.7767 42.671 40.7767 43.2469C40.7767 43.8228 40.3783 44.2601 39.7879 44.2601C39.1701 44.2601 38.7919 43.8031 38.7919 43.2469H38.7921ZM41.4495 43.2469V41.6651H40.7361V42.0507C40.5089 41.7658 40.1663 41.587 39.6993 41.587C38.7793 41.587 38.0573 42.2827 38.0573 43.2488C38.0573 44.215 38.7789 44.9106 39.6993 44.9106C40.1663 44.9106 40.5089 44.7317 40.7361 44.4469V44.8312H41.4497V43.248L41.4495 43.2469ZM34.7611 43.2469C34.7611 44.2069 35.4543 44.9087 36.5123 44.9087C37.0067 44.9087 37.3361 44.8026 37.6923 44.5314L37.3495 43.9751C37.0815 44.1608 36.8001 44.2601 36.4895 44.2601C35.9197 44.2533 35.5007 43.8562 35.5007 43.2469C35.5007 42.6376 35.9197 42.2406 36.4895 42.2337C36.7993 42.2337 37.0807 42.333 37.3495 42.5187L37.6923 41.9624C37.3355 41.6911 37.0061 41.5851 36.5123 41.5851C35.4543 41.5851 34.7611 42.2867 34.7611 43.2469V43.2469ZM43.9631 41.5851C43.5513 41.5851 43.2831 41.7708 43.0977 42.0488V41.6651H42.3903V44.8294H43.1049V43.0556C43.1049 42.532 43.3383 42.241 43.8049 42.241C43.9577 42.2389 44.1094 42.266 44.2513 42.3207L44.4713 41.6721C44.3133 41.6121 44.1073 41.5857 43.9627 41.5857L43.9631 41.5851ZM24.8299 41.9167C24.4865 41.6985 24.0133 41.5857 23.4913 41.5857C22.6597 41.5857 22.1243 41.9699 22.1243 42.5987C22.1243 43.1146 22.5229 43.4329 23.2569 43.5322L23.5941 43.5785C23.9855 43.6315 24.1703 43.7308 24.1703 43.9096C24.1703 44.1542 23.9103 44.2938 23.4221 44.2938C22.9277 44.2938 22.5709 44.1415 22.3303 43.9628L21.9949 44.4994C22.3863 44.7774 22.8807 44.91 23.4161 44.91C24.3641 44.91 24.9135 44.4797 24.9135 43.8772C24.9135 43.3209 24.4811 43.03 23.7667 42.9307L23.4303 42.8836C23.1213 42.8451 22.8737 42.7851 22.8737 42.573C22.8737 42.3417 23.1071 42.2025 23.4987 42.2025C23.9177 42.2025 24.3233 42.3548 24.5221 42.4737L24.8311 41.9175L24.8299 41.9167ZM34.0401 41.5863C33.6283 41.5863 33.3601 41.7719 33.1755 42.05V41.6651H32.4681V44.8294H33.1819V43.0556C33.1819 42.532 33.4153 42.241 33.8819 42.241C34.0347 42.2389 34.1864 42.266 34.3283 42.3207L34.5483 41.6721C34.3903 41.6121 34.1843 41.5857 34.0397 41.5857L34.0401 41.5863ZM27.9489 41.6651H26.7817V40.7051H26.0601V41.6651H25.3943V42.294H26.0601V43.7376C26.0601 44.4718 26.3557 44.9091 27.2001 44.9091C27.5099 44.9091 27.8667 44.8165 28.0931 44.6644L27.8869 44.0752C27.6739 44.1941 27.4405 44.2541 27.2549 44.2541C26.8981 44.2541 26.7817 44.042 26.7817 43.7245V42.2946H27.9489V41.6651ZM17.2771 44.8302V42.8443C17.2771 42.0964 16.7827 41.5932 15.9857 41.5865C15.5667 41.5797 15.1345 41.7054 14.8319 42.1494C14.6055 41.7985 14.2487 41.5865 13.7471 41.5865C13.3965 41.5865 13.0539 41.6857 12.7857 42.0563V41.6651H12.0713V44.8294H12.7913V43.0749C12.7913 42.5256 13.1073 42.2337 13.5953 42.2337C14.0693 42.2337 14.3091 42.5316 14.3091 43.068V44.8291H15.0307V43.0745C15.0307 42.5252 15.3601 42.2333 15.8339 42.2333C16.3213 42.2333 16.5539 42.5312 16.5539 43.0676V44.8287L17.2771 44.8302Z" fill="#231F20"/>
<path d="M49.6194 34.304V33.8413H49.4944L49.3498 34.1588L49.206 33.8413H49.0806V34.304H49.1694V33.9554L49.3046 34.2561H49.3966L49.5318 33.9547V34.304H49.6198H49.6194ZM48.8264 34.304V33.9205H48.9864V33.8425H48.5776V33.9205H48.7376V34.304H48.8256H48.8264Z" fill="#F79410"/>
<path d="M35.4114 36.2877H24.5942V17.5474H35.4116L35.4114 36.2877Z" fill="#FF5F00"/>
<path d="M25.28 26.918C25.28 23.1165 27.1264 19.7301 30.0016 17.5478C27.8252 15.8934 25.1334 14.9956 22.3618 14.9995C15.5344 14.9995 10 20.3355 10 26.918C10 33.5004 15.5344 38.8364 22.3618 38.8364C25.1334 38.8404 27.8254 37.9425 30.0018 36.2881C27.1268 34.1062 25.28 30.7196 25.28 26.918Z" fill="#EB001B"/>
<path d="M50.0048 26.9189C50.0048 33.5014 44.4704 38.8374 37.643 38.8374C34.871 38.8413 32.1788 37.9435 30.002 36.2891C32.878 34.1068 34.7244 30.7206 34.7244 26.9189C34.7244 23.1173 32.878 19.7311 30.002 17.5488C32.1788 15.8945 34.8709 14.9966 37.6428 15.0005C44.4702 15.0005 50.0046 20.3365 50.0046 26.9189" fill="#F79E1B"/>
</g>
<defs>
<clipPath id="clip0_1389_5639">
<rect width="40" height="30" fill="white" transform="translate(10 15)"/>
</clipPath>
</defs>
</svg>
