<svg width="60" height="60" viewBox="0 0 60 60" fill="none" xmlns="http://www.w3.org/2000/svg">
<path d="M18.5497 23V23.0066C18.5435 23.0066 16.585 23 16.0627 24.9722C15.584 26.7806 14.2348 31.7711 14.1975 31.9087H13.8245C13.8245 31.9087 12.4442 26.8068 11.9593 24.9656C11.437 22.9934 9.47235 23 9.47235 23H5V38H9.47442V29.0912H9.84746L12.4587 37.9999H15.5654L18.1766 29.0978H18.5497V37.9999H23.0241V23H18.5497V23ZM34.8951 23C34.8951 23 33.5832 23.1245 32.9677 24.5726L29.7989 31.9087H29.4259V23H24.9515V38H29.1772C29.1772 38 30.5512 37.869 31.1668 36.4275L34.2734 29.0913H34.6465V38H39.1209V23H34.8951ZM41.1104 29.812V38H45.5848V33.2191H50.4323C52.5462 33.2191 54.3347 31.7973 55 29.8142H41.1104V29.812V29.812Z" fill="#4DB45E"/>
<path d="M50.4144 23H41C41.4705 25.7839 43.3937 28.0166 45.8797 28.7445C46.4568 28.9142 47.0521 29.0001 47.65 29H54.9059C54.9706 28.668 55 28.3296 55 27.9784C55.0001 25.2284 52.9474 23 50.4144 23V23Z" fill="url(#paint0_linear_1389_5635)"/>
<defs>
<linearGradient id="paint0_linear_1389_5635" x1="41" y1="26" x2="55" y2="26" gradientUnits="userSpaceOnUse">
<stop offset="0.3" stop-color="#00B4E6"/>
<stop offset="1" stop-color="#088CCB"/>
</linearGradient>
</defs>
</svg>
