<svg width="24" height="24" viewBox="0 0 24 24" fill="none" xmlns="http://www.w3.org/2000/svg">
<path d="M8.70338 14.2348C8.6269 14.2412 8.55061 14.2445 8.47412 14.2445C8.2649 14.2445 8.0614 14.2141 7.86213 14.168L3.25128 18.779C3.02496 19.005 3.02496 19.3721 3.25128 19.5981L4.44461 20.7917C4.67093 21.0178 5.03761 21.0178 5.2633 20.7917L10.8049 15.2511L9.77793 14.1431L8.70338 14.2348Z" fill="#EB9C03"/>
<path d="M20.8373 6.84698C20.6209 6.6307 20.2707 6.6307 20.0544 6.84698L17.0663 9.83495C16.7836 10.1174 16.3256 10.1174 16.0429 9.83495C15.7614 9.55273 15.7614 9.09513 16.0429 8.81299L19.0162 5.84035C19.2408 5.6155 19.2408 5.251 19.0162 5.02564C18.7905 4.80108 18.4261 4.80108 18.2015 5.02564L15.2294 7.99798C14.9467 8.28071 14.4893 8.28071 14.2065 7.99798C13.9244 7.71587 13.9244 7.25794 14.2065 6.97606L17.1939 3.98839C17.4109 3.77177 17.4109 3.4209 17.1939 3.20399C16.9775 2.98734 16.6267 2.98734 16.4097 3.20399L13.0485 6.56543C12.2403 7.37408 11.9851 8.50916 12.2467 9.542L14.5 11.7954C15.5327 12.0561 16.6684 11.8007 17.4756 10.9927L20.8373 7.63145C21.0543 7.41484 21.0543 7.0636 20.8373 6.84698Z" fill="#EB9C03"/>
<path d="M4.51023 3.5075C4.39505 3.39228 4.23929 3.3291 4.07935 3.3291C4.04532 3.3291 4.0111 3.332 3.97769 3.33759C3.78309 3.37052 3.61613 3.49544 3.53035 3.67325C2.54577 5.70831 2.95724 8.14341 4.55551 9.74175L7.41484 12.6007C7.69695 12.8832 8.07839 13.0395 8.47399 13.0395C8.51629 13.0395 8.5587 13.0377 8.601 13.0342L10.2611 12.8926L17.5002 20.7019C17.6126 20.8233 17.77 20.8938 17.9359 20.8971C17.9393 20.8971 17.9428 20.8971 17.9465 20.8971C18.1086 20.8971 18.2638 20.833 18.3791 20.7186L19.6188 19.4786C19.7334 19.3643 19.7974 19.2092 19.7974 19.0475C19.7974 18.8859 19.7334 18.7306 19.6193 18.6163L4.51023 3.5075Z" fill="#EB9C03"/>
</svg>
