<svg width="60" height="60" viewBox="0 0 60 60" fill="none" xmlns="http://www.w3.org/2000/svg">
<path d="M26.6426 37.9178H22.5223L25.0975 22.0919H29.2182L26.6426 37.9178ZM19.0561 22.0919L15.1279 32.9771L14.6631 30.6331L14.6635 30.6339L13.2771 23.5168C13.2771 23.5168 13.1095 22.0919 11.3226 22.0919H4.82864L4.75244 22.3598C4.75244 22.3598 6.7383 22.773 9.06241 24.1687L12.6421 37.9182H16.9351L23.4905 22.0919H19.0561V22.0919ZM51.4644 37.9178H55.2477L51.9491 22.0914H48.6369C47.1074 22.0914 46.7349 23.2709 46.7349 23.2709L40.5898 37.9178H44.8849L45.7439 35.567H50.9818L51.4644 37.9178ZM46.9305 32.3196L49.0954 26.3972L50.3133 32.3196H46.9305ZM40.9119 25.8976L41.5 22.4991C41.5 22.4991 39.6855 21.8091 37.7941 21.8091C35.7494 21.8091 30.8937 22.7027 30.8937 27.0483C30.8937 31.1368 36.5927 31.1876 36.5927 33.3352C36.5927 35.4828 31.4809 35.098 29.7939 33.7437L29.1814 37.2972C29.1814 37.2972 31.0212 38.1908 33.8321 38.1908C36.6439 38.1908 40.8857 36.735 40.8857 32.7726C40.8857 28.6578 35.1355 28.2747 35.1355 26.4857C35.136 24.6962 39.1488 24.9261 40.9119 25.8976V25.8976Z" fill="#2566AF"/>
<path d="M14.6635 30.6343L13.2771 23.5172C13.2771 23.5172 13.1094 22.0923 11.3226 22.0923H4.82864L4.75244 22.3603C4.75244 22.3603 7.87367 23.0071 10.8675 25.4307C13.73 27.7471 14.6635 30.6343 14.6635 30.6343Z" fill="#E6A540"/>
</svg>
