<svg width="18" height="18" viewBox="0 0 18 18" fill="none" xmlns="http://www.w3.org/2000/svg">
<path fill-rule="evenodd" clip-rule="evenodd" d="M9 2.25C7.13604 2.25 5.44854 3.00552 4.22703 4.22703C3.00552 5.44854 2.25 7.13604 2.25 9C2.25 10.864 3.00552 12.5515 4.22703 13.773C5.44854 14.9945 7.13604 15.75 9 15.75C10.864 15.75 12.5515 14.9945 13.773 13.773C14.9945 12.5515 15.75 10.864 15.75 9C15.75 7.13604 14.9945 5.44854 13.773 4.22703C12.5515 3.00552 10.864 2.25 9 2.25Z" stroke="#7E8A95" stroke-width="2" stroke-linecap="round" stroke-linejoin="round"/>
<path d="M9 6L9 9" stroke="#7E8A95" stroke-width="2" stroke-linecap="round" stroke-linejoin="round"/>
<path d="M9 9L10.5 10.5" stroke="#7E8A95" stroke-width="2" stroke-linecap="round" stroke-linejoin="round"/>
</svg>
