<svg width="20" height="20" viewBox="0 0 20 20" fill="none" xmlns="http://www.w3.org/2000/svg">
<path d="M11.6213 13.3164L8.38037 13.3164" stroke="white" stroke-miterlimit="10" stroke-linecap="round" stroke-linejoin="round"/>
<path d="M9.9996 11.7292L9.9996 14.9701" stroke="white" stroke-miterlimit="10" stroke-linecap="round" stroke-linejoin="round"/>
<path d="M7.34162 1.66602L4.32495 4.69102" stroke="white" stroke-miterlimit="10" stroke-linecap="round" stroke-linejoin="round"/>
<path d="M12.6584 1.66602L15.6751 4.69102" stroke="white" stroke-miterlimit="10" stroke-linecap="round" stroke-linejoin="round"/>
<path d="M1.66675 6.54167C1.66675 5 2.49175 4.875 3.51675 4.875H16.4834C17.5084 4.875 18.3334 5 18.3334 6.54167C18.3334 8.33333 17.5084 8.20833 16.4834 8.20833H3.51675C2.49175 8.20833 1.66675 8.33333 1.66675 6.54167Z" stroke="white"/>
<path d="M2.91675 8.33398L4.09175 15.534C4.35841 17.1507 5.00008 18.334 7.38341 18.334H12.4084C15.0001 18.334 15.3834 17.2007 15.6834 15.634L17.0834 8.33398" stroke="white" stroke-linecap="round"/>
</svg>
