<svg width="24" height="24" viewBox="0 0 24 24" fill="none" xmlns="http://www.w3.org/2000/svg">
<g opacity="0.3">
<path d="M19.5648 16.7424L17.332 14.5095C16.5345 13.7121 15.1789 14.0311 14.8599 15.0678C14.6207 15.7855 13.8232 16.1842 13.1055 16.0247C11.5106 15.626 9.35751 13.5526 8.95879 11.878C8.71955 11.1602 9.19802 10.3628 9.91572 10.1236C10.9524 9.80461 11.2714 8.44895 10.4739 7.65151L8.24109 5.41866C7.60313 4.86045 6.64619 4.86045 6.08798 5.41866L4.57284 6.93381C3.05769 8.5287 4.73232 12.7552 8.48032 16.5032C12.2283 20.2511 16.4548 22.0056 18.0497 20.4106L19.5648 18.8955C20.1231 18.2575 20.1231 17.3006 19.5648 16.7424Z" fill="#151515"/>
</g>
</svg>
