<svg width="24" height="24" viewBox="0 0 24 24" fill="none" xmlns="http://www.w3.org/2000/svg">
    <path fill-rule="evenodd" clip-rule="evenodd"
          d="M13.414 20.9L17.657 16.657C18.7758 15.5382 19.5377 14.1127 19.8463 12.5609C20.155 11.009 19.9965 9.40053 19.391 7.93874C18.7855 6.47696 17.7601 5.22755 16.4445 4.34852C15.1289 3.46949 13.5822 3.00031 12 3.00031C10.4178 3.00031 8.87107 3.46949 7.55548 4.34852C6.2399 5.22755 5.21452 6.47696 4.60901 7.93874C4.00349 9.40053 3.84504 11.009 4.15369 12.5609C4.46234 14.1127 5.22422 15.5382 6.343 16.657L10.587 20.9C10.7726 21.0858 10.9929 21.2331 11.2354 21.3336C11.478 21.4342 11.738 21.4859 12.0005 21.4859C12.2631 21.4859 12.523 21.4342 12.7656 21.3336C13.0081 21.2331 13.2284 21.0858 13.414 20.9ZM14.1213 13.1213C14.6839 12.5587 15 11.7956 15 11C15 10.2044 14.6839 9.44129 14.1213 8.87868C13.5587 8.31607 12.7956 8 12 8C11.2044 8 10.4413 8.31607 9.87868 8.87868C9.31607 9.44129 9 10.2044 9 11C9 11.7956 9.31607 12.5587 9.87868 13.1213C10.4413 13.6839 11.2044 14 12 14C12.7956 14 13.5587 13.6839 14.1213 13.1213Z"
          fill="#FD6601"/>
    <path d="M17.657 16.657L18.0106 17.0106L18.0106 17.0106L17.657 16.657ZM13.414 20.9L13.0605 20.5465L13.0603 20.5466L13.414 20.9ZM19.8463 12.5609L19.3559 12.4633L19.3559 12.4633L19.8463 12.5609ZM19.391 7.93874L19.8529 7.7474L19.8529 7.74739L19.391 7.93874ZM7.55548 4.34852L7.83327 4.76426L7.83327 4.76426L7.55548 4.34852ZM4.60901 7.93874L4.14707 7.74739L4.14707 7.74739L4.60901 7.93874ZM4.15369 12.5609L3.6633 12.6584L4.15369 12.5609ZM6.343 16.657L5.98944 17.0106L5.98949 17.0106L6.343 16.657ZM10.587 20.9L10.9407 20.5466L10.9405 20.5464L10.587 20.9ZM11.2354 21.3336L11.4269 20.8717L11.4269 20.8717L11.2354 21.3336ZM17.3035 16.3035L13.0605 20.5465L13.7676 21.2536L18.0106 17.0106L17.3035 16.3035ZM19.3559 12.4633C19.0666 13.9182 18.3523 15.2546 17.3034 16.3035L18.0106 17.0106C19.1993 15.8218 20.0088 14.3072 20.3367 12.6584L19.3559 12.4633ZM18.9291 8.13009C19.4967 9.50051 19.6453 11.0085 19.3559 12.4633L20.3367 12.6584C20.6646 11.0096 20.4963 9.30054 19.8529 7.7474L18.9291 8.13009ZM16.1667 4.76426C17.4001 5.58835 18.3614 6.75967 18.9291 8.13009L19.8529 7.74739C19.2096 6.19425 18.1201 4.86676 16.7223 3.93278L16.1667 4.76426ZM12 3.50031C13.4833 3.50031 14.9334 3.94016 16.1667 4.76426L16.7223 3.93278C15.3245 2.99881 13.6811 2.50031 12 2.50031V3.50031ZM7.83327 4.76426C9.06663 3.94016 10.5167 3.50031 12 3.50031V2.50031C10.3189 2.50031 8.67551 2.99881 7.2777 3.93278L7.83327 4.76426ZM5.07094 8.13009C5.63861 6.75967 6.59991 5.58835 7.83327 4.76426L7.2777 3.93278C5.87989 4.86676 4.79043 6.19425 4.14707 7.74739L5.07094 8.13009ZM4.64409 12.4633C4.35473 11.0085 4.50328 9.50051 5.07094 8.13009L4.14707 7.74739C3.50371 9.30054 3.33536 11.0096 3.6633 12.6584L4.64409 12.4633ZM6.69657 16.3035C5.64771 15.2546 4.93344 13.9182 4.64409 12.4633L3.6633 12.6584C3.99124 14.3072 4.80074 15.8218 5.98944 17.0106L6.69657 16.3035ZM10.9405 20.5464L6.69652 16.3034L5.98949 17.0106L10.2335 21.2536L10.9405 20.5464ZM11.4269 20.8717C11.2451 20.7964 11.0799 20.6859 10.9407 20.5466L10.2333 21.2534C10.4653 21.4856 10.7408 21.6698 11.044 21.7955L11.4269 20.8717ZM12.0005 20.9859C11.8037 20.9859 11.6087 20.9471 11.4269 20.8717L11.044 21.7955C11.3472 21.9212 11.6723 21.9859 12.0005 21.9859V20.9859ZM12.5741 20.8717C12.3923 20.9471 12.1973 20.9859 12.0005 20.9859V21.9859C12.3288 21.9859 12.6538 21.9212 12.957 21.7955L12.5741 20.8717ZM13.0603 20.5466C12.9212 20.6859 12.7559 20.7964 12.5741 20.8717L12.957 21.7955C13.2603 21.6698 13.5357 21.4856 13.7677 21.2534L13.0603 20.5466ZM14.5 11C14.5 11.663 14.2366 12.2989 13.7678 12.7678L14.4749 13.4749C15.1313 12.8185 15.5 11.9283 15.5 11H14.5ZM13.7678 9.23223C14.2366 9.70107 14.5 10.337 14.5 11H15.5C15.5 10.0717 15.1313 9.1815 14.4749 8.52513L13.7678 9.23223ZM12 8.5C12.663 8.5 13.2989 8.76339 13.7678 9.23223L14.4749 8.52513C13.8185 7.86875 12.9283 7.5 12 7.5V8.5ZM10.2322 9.23223C10.7011 8.76339 11.337 8.5 12 8.5V7.5C11.0717 7.5 10.1815 7.86875 9.52513 8.52513L10.2322 9.23223ZM9.5 11C9.5 10.337 9.76339 9.70107 10.2322 9.23223L9.52513 8.52513C8.86875 9.1815 8.5 10.0717 8.5 11H9.5ZM10.2322 12.7678C9.76339 12.2989 9.5 11.663 9.5 11H8.5C8.5 11.9283 8.86875 12.8185 9.52513 13.4749L10.2322 12.7678ZM12 13.5C11.337 13.5 10.7011 13.2366 10.2322 12.7678L9.52513 13.4749C10.1815 14.1313 11.0717 14.5 12 14.5V13.5ZM13.7678 12.7678C13.2989 13.2366 12.663 13.5 12 13.5V14.5C12.9283 14.5 13.8185 14.1313 14.4749 13.4749L13.7678 12.7678Z"
          fill="#FD6601"/>
</svg>
