<svg width="24" height="16" viewBox="0 0 24 16" fill="none" xmlns="http://www.w3.org/2000/svg">
    <path d="M22.8391 12.457V12.18H22.7681L22.6851 12.37L22.6031 12.18H22.5321V12.457H22.5821V12.248L22.6591 12.428H22.7121L22.7891 12.248V12.457H22.8391ZM22.3871 12.457V12.227H22.4781V12.18H22.2451V12.227H22.3371V12.457H22.3871Z"
          fill="#E9993A"/>
    <path d="M14.7402 13.648H8.57617V2.42401H14.7402V13.648Z" fill="#ED6A2C"/>
    <path d="M8.9697 8.03501C8.96712 6.95729 9.20787 5.89289 9.67398 4.92118C10.1401 3.94947 10.8196 3.09552 11.6617 2.42301C10.4262 1.43397 8.89034 0.895695 7.30769 0.897006C3.41669 0.897006 0.262695 4.09301 0.262695 8.03501C0.262695 11.977 3.41669 15.173 7.30769 15.173C8.95069 15.173 10.4627 14.603 11.6617 13.647C10.8197 12.9744 10.1405 12.1204 9.67453 11.1487C9.20859 10.177 8.968 9.11264 8.9707 8.03501"
          fill="#D82E2B"/>
    <path d="M23.0533 8.035C23.0533 11.977 19.8993 15.173 16.0083 15.173C14.4257 15.1742 12.8899 14.6359 11.6543 13.647C12.4963 12.9744 13.1756 12.1205 13.6416 11.1487C14.1075 10.177 14.3481 9.11265 14.3453 8.035C14.3481 6.95736 14.1075 5.89299 13.6416 4.92127C13.1756 3.94956 12.4963 3.09557 11.6543 2.423C12.8899 1.43411 14.4257 0.895854 16.0083 0.897005C19.8983 0.897005 23.0533 4.093 23.0533 8.035Z"
          fill="#EAA240"/>
</svg>
