<svg width="13" height="19" viewBox="0 0 13 19" fill="none" xmlns="http://www.w3.org/2000/svg">
<path d="M12.0432 0.531922V0.529959C11.7059 0.190932 11.2475 0.000196281 10.7693 0H2.40187C1.40805 0.00323864 0.603245 0.80804 0.600006 1.80186V17.1962C0.600202 17.6744 0.790939 18.1328 1.12996 18.47C1.46673 18.8086 1.92436 18.9993 2.40187 19H10.7713C11.2488 18.9993 11.7064 18.8086 12.0432 18.47C12.3817 18.1333 12.5724 17.6756 12.5731 17.1981V1.80382C12.5724 1.32632 12.3817 0.868691 12.0432 0.531922ZM6.58658 17.7772C6.31772 17.7772 6.0998 17.5592 6.0998 17.2904C6.0998 17.0215 6.31772 16.8036 6.58658 16.8036C6.85543 16.8036 7.07335 17.0215 7.07335 17.2904C7.07335 17.5592 6.85543 17.7772 6.58658 17.7772ZM11.1423 14.7211C11.1423 15.3715 10.615 15.8988 9.96457 15.8988H3.20662C2.55619 15.8988 2.02893 15.3715 2.02893 14.7211V3.24845C2.02893 2.59802 2.55619 2.07076 3.20662 2.07076H9.96653C10.617 2.07076 11.1442 2.59802 11.1442 3.24845L11.1423 14.7211Z" fill="#B5B5B5"/>
</svg>
