<svg width="450" height="450" viewBox="0 0 450 450" fill="none" xmlns="http://www.w3.org/2000/svg">
    <circle cx="225" cy="225" r="225" fill="#E1E1E1"/>
    <path d="M374.074 260.963C372.923 259.125 370.911 258 368.749 258H81.2489C79.0862 258 77.0741 259.125 75.9362 260.963C74.7989 262.8 74.6864 265.1 75.6614 267.038C84.4364 284.6 102.074 295.5 121.698 295.5H328.298C347.911 295.5 365.548 284.6 374.348 267.05C375.299 265.1 375.211 262.812 374.074 260.963Z"
          fill="#FBFBFB"/>
    <path d="M242.136 134.3C243.161 131.987 243.749 129.437 243.749 126.75C243.749 116.412 235.336 108 224.999 108C214.661 108 206.249 116.412 206.249 126.75C206.249 129.438 206.836 131.988 207.861 134.3C151.224 142.088 106.499 187.688 100.761 245.5H349.224C343.486 187.713 298.749 142.088 242.136 134.3ZM219.161 170.487C184.199 172.8 154.086 195.625 142.473 228.638C141.573 231.2 139.148 232.812 136.574 232.812C135.886 232.812 135.186 232.7 134.499 232.463C131.249 231.312 129.537 227.75 130.674 224.487C143.949 186.737 178.362 160.65 218.337 158.012C221.649 157.799 224.749 160.387 224.986 163.837C225.211 167.288 222.611 170.262 219.161 170.487Z"
          fill="#FBFBFB"/>
</svg>
