<svg width="42" height="14" viewBox="0 0 42 14" fill="none" xmlns="http://www.w3.org/2000/svg">
    <path d="M17.8398 13.412H14.5198L16.5958 0.579991H19.9158L17.8398 13.412ZM29.8728 0.893991C28.9227 0.528382 27.9128 0.343215 26.8948 0.34799C23.6168 0.34799 21.3088 2.09499 21.2948 4.59299C21.2668 6.43599 22.9468 7.45899 24.2038 8.07299C25.4878 8.70199 25.9238 9.11199 25.9238 9.67099C25.9118 10.531 24.8868 10.927 23.9308 10.927C22.6058 10.927 21.8958 10.723 20.8168 10.245L20.3798 10.04L19.9148 12.92C20.6938 13.274 22.1278 13.589 23.6168 13.603C27.0998 13.603 29.3668 11.883 29.3948 9.22099C29.4078 7.76099 28.5208 6.64099 26.6078 5.72599C25.4478 5.13899 24.7358 4.74399 24.7358 4.14299C24.7498 3.59699 25.3378 3.03699 26.6478 3.03699C27.4987 3.01237 28.3441 3.18056 29.1208 3.52899L29.4208 3.66499L29.8728 0.89499V0.893991ZM34.2848 8.86599L35.6098 5.27599C35.5958 5.30299 35.8828 4.52599 36.0468 4.04799L36.2788 5.15299C36.2788 5.15299 36.9068 8.22399 37.0438 8.86599H34.2838H34.2848ZM38.3818 0.58099H35.8148C35.0228 0.58099 34.4208 0.81199 34.0798 1.64499L29.1488 13.411H32.6318L33.3288 11.487H37.5908C37.6858 11.937 37.9868 13.411 37.9868 13.411H41.0598L38.3818 0.58099ZM11.7468 0.579991L8.4968 9.32999L8.1408 7.55599C7.5398 5.50799 5.6548 3.28299 3.5498 2.17699L6.5278 13.397H10.0378L15.2558 0.58099H11.7458L11.7468 0.579991Z"
          fill="#23569A"/>
    <path d="M5.47703 0.579987H0.137031L0.0820312 0.839987C4.24803 1.90499 7.00703 4.46999 8.14103 7.55599L6.98003 1.65999C6.78903 0.839987 6.20103 0.608987 5.47703 0.581987V0.579987Z"
          fill="#EEAA41"/>
</svg>
