<svg width="14" height="14" viewBox="0 0 14 14" fill="none" xmlns="http://www.w3.org/2000/svg">
<path d="M11.0834 6.04545C11.0834 9.38636 7.00008 12.25 7.00008 12.25C7.00008 12.25 2.91675 9.38636 2.91675 6.04545C2.91675 4.90623 3.34696 3.81366 4.11273 3.00811C4.8785 2.20256 5.91711 1.75 7.00008 1.75C8.08305 1.75 9.12166 2.20256 9.88743 3.00811C10.6532 3.81366 11.0834 4.90623 11.0834 6.04545Z" fill="#6155E7"/>
<path fill-rule="evenodd" clip-rule="evenodd" d="M7.00008 2.25C6.05813 2.25 5.1493 2.64339 4.47512 3.3526C3.80011 4.06267 3.41675 5.0309 3.41675 6.04545C3.41675 7.52428 4.33074 8.95645 5.32995 10.066C5.82078 10.611 6.31311 11.0571 6.68313 11.3671C6.80361 11.468 6.91072 11.5541 7.00008 11.6242C7.08945 11.5541 7.19655 11.468 7.31703 11.3671C7.68705 11.0571 8.17939 10.611 8.67021 10.066C9.66942 8.95645 10.5834 7.52428 10.5834 6.04545C10.5834 5.0309 10.2 4.06267 9.52505 3.3526C8.85086 2.64339 7.94204 2.25 7.00008 2.25ZM7.00008 12.25C6.71299 12.6594 6.71287 12.6593 6.71273 12.6592L6.71237 12.6589L6.71137 12.6582L6.70826 12.656L6.69769 12.6485L6.65979 12.6211C6.62733 12.5975 6.58078 12.5631 6.52215 12.5186C6.40494 12.4295 6.23916 12.2996 6.04099 12.1336C5.64539 11.8023 5.11689 11.3237 4.58688 10.7352C3.54442 9.57764 2.41675 7.90754 2.41675 6.04545C2.41675 4.78156 2.8938 3.56466 3.75034 2.66362C4.6077 1.76172 5.7761 1.25 7.00008 1.25C8.22406 1.25 9.39246 1.76172 10.2498 2.66362C11.1064 3.56466 11.5834 4.78156 11.5834 6.04545C11.5834 7.90754 10.4557 9.57764 9.41329 10.7352C8.88328 11.3237 8.35478 11.8023 7.95917 12.1336C7.761 12.2996 7.59523 12.4295 7.47801 12.5186C7.41938 12.5631 7.37283 12.5975 7.34037 12.6211L7.30247 12.6485L7.2919 12.656L7.28879 12.6582L7.2878 12.6589L7.28744 12.6592C7.28729 12.6593 7.28717 12.6594 7.00008 12.25ZM7.00008 12.25L7.28717 12.6594C7.11485 12.7802 6.88531 12.7802 6.71299 12.6594L7.00008 12.25Z" fill="#6155E7"/>
<path d="M7 7.58325C7.9665 7.58325 8.75 6.79975 8.75 5.83325C8.75 4.86675 7.9665 4.08325 7 4.08325C6.0335 4.08325 5.25 4.86675 5.25 5.83325C5.25 6.79975 6.0335 7.58325 7 7.58325Z" fill="#F1F3F9"/>
<path fill-rule="evenodd" clip-rule="evenodd" d="M7 4.58325C6.30964 4.58325 5.75 5.1429 5.75 5.83325C5.75 6.52361 6.30964 7.08325 7 7.08325C7.69036 7.08325 8.25 6.52361 8.25 5.83325C8.25 5.1429 7.69036 4.58325 7 4.58325ZM4.75 5.83325C4.75 4.59061 5.75736 3.58325 7 3.58325C8.24264 3.58325 9.25 4.59061 9.25 5.83325C9.25 7.07589 8.24264 8.08325 7 8.08325C5.75736 8.08325 4.75 7.07589 4.75 5.83325Z" fill="#F1F3F9"/>
</svg>
