<svg width="16" height="17" viewBox="0 0 16 17" fill="none" xmlns="http://www.w3.org/2000/svg">
<path fill-rule="evenodd" clip-rule="evenodd" d="M5.29289 5.79289C5.68342 5.40237 6.31658 5.40237 6.70711 5.79289L8 7.08579L9.29289 5.79289C9.68342 5.40237 10.3166 5.40237 10.7071 5.79289C11.0976 6.18342 11.0976 6.81658 10.7071 7.20711L9.41421 8.5L10.7071 9.79289C11.0976 10.1834 11.0976 10.8166 10.7071 11.2071C10.3166 11.5976 9.68342 11.5976 9.29289 11.2071L8 9.91421L6.70711 11.2071C6.31658 11.5976 5.68342 11.5976 5.29289 11.2071C4.90237 10.8166 4.90237 10.1834 5.29289 9.79289L6.58579 8.5L5.29289 7.20711C4.90237 6.81658 4.90237 6.18342 5.29289 5.79289Z" fill="white"/>
</svg>
