<svg width="18" height="18" viewBox="0 0 18 18" fill="none" xmlns="http://www.w3.org/2000/svg">
<path fill-rule="evenodd" clip-rule="evenodd" d="M8.25 3.25C5.48858 3.25 3.25 5.48858 3.25 8.25C3.25 11.0114 5.48858 13.25 8.25 13.25C11.0114 13.25 13.25 11.0114 13.25 8.25C13.25 5.48858 11.0114 3.25 8.25 3.25ZM1.25 8.25C1.25 4.38401 4.38401 1.25 8.25 1.25C12.116 1.25 15.25 4.38401 15.25 8.25C15.25 12.116 12.116 15.25 8.25 15.25C4.38401 15.25 1.25 12.116 1.25 8.25Z" fill="#7E8A95"/>
<path fill-rule="evenodd" clip-rule="evenodd" d="M12.0429 12.0429C12.4334 11.6524 13.0666 11.6524 13.4571 12.0429L16.4571 15.0429C16.8476 15.4334 16.8476 16.0666 16.4571 16.4571C16.0666 16.8476 15.4334 16.8476 15.0429 16.4571L12.0429 13.4571C11.6524 13.0666 11.6524 12.4334 12.0429 12.0429Z" fill="#7E8A95"/>
</svg>
