<svg width="12" height="10" viewBox="0 0 12 10" fill="none" xmlns="http://www.w3.org/2000/svg">
<path d="M6.0239 2.7537L6.04908 3.16893L5.6294 3.11808C4.10173 2.92318 2.76713 2.26221 1.63397 1.15211L1.07998 0.6013L0.937288 1.00805C0.635113 1.91477 0.82817 2.87234 1.4577 3.51636C1.79345 3.87227 1.71791 3.92312 1.13874 3.71127C0.937288 3.64347 0.76102 3.59263 0.744232 3.61805C0.685476 3.67737 0.886926 4.44851 1.04641 4.75357C1.26464 5.17727 1.70951 5.5925 2.19635 5.83825L2.60764 6.03315L2.12081 6.04162C1.65076 6.04162 1.63397 6.0501 1.68433 6.22805C1.85221 6.77886 2.51531 7.36357 3.25396 7.61779L3.77438 7.79574L3.32111 8.06691C2.64961 8.45672 1.8606 8.67704 1.07159 8.69399C0.69387 8.70246 0.383301 8.73636 0.383301 8.76178C0.383301 8.84652 1.40734 9.32107 2.00329 9.5075C3.79116 10.0583 5.91478 9.82104 7.5096 8.88042C8.64275 8.21097 9.77591 6.88055 10.3047 5.5925C10.5901 4.9061 10.8755 3.65195 10.8755 3.05029C10.8755 2.66049 10.9007 2.60964 11.3707 2.14357C11.6477 1.8724 11.9079 1.57581 11.9583 1.49107C12.0422 1.33007 12.0338 1.33007 11.6057 1.47412C10.8923 1.72834 10.7916 1.69445 11.1441 1.31312C11.4043 1.04195 11.7149 0.550456 11.7149 0.406397C11.7149 0.380975 11.589 0.423345 11.4463 0.499612C11.2952 0.584352 10.9594 0.711462 10.7076 0.787728L10.2544 0.931787L9.84306 0.652144C9.61643 0.499612 9.29746 0.330131 9.12959 0.279287C8.70151 0.160651 8.0468 0.177599 7.66068 0.313183C6.61146 0.694514 5.94836 1.6775 6.0239 2.7537Z" fill="#DADADA"/>
</svg>
