<svg width="24" height="24" viewBox="0 0 24 24" fill="none" xmlns="http://www.w3.org/2000/svg">
<path fill-rule="evenodd" clip-rule="evenodd" d="M12 4C10.3431 4 9 5.34315 9 7C9 8.65685 10.3431 10 12 10C13.6569 10 15 8.65685 15 7C15 5.34315 13.6569 4 12 4ZM7 7C7 4.23858 9.23858 2 12 2C14.7614 2 17 4.23858 17 7C17 9.76142 14.7614 12 12 12C9.23858 12 7 9.76142 7 7Z" fill="#4A465C"/>
<path fill-rule="evenodd" clip-rule="evenodd" d="M4.80107 14.9004C5.73815 13.7585 7.33717 13 8.99992 13H14.9999C16.6627 13 18.2617 13.7585 19.1988 14.9004C19.6744 15.48 20.0087 16.1971 20.0378 16.9919C20.0675 17.8036 19.7746 18.5958 19.1703 19.2871C17.6978 20.9716 15.3466 22 11.9999 22C8.65319 22 6.30206 20.9716 4.8295 19.2871C4.22527 18.5958 3.93229 17.8036 3.96202 16.9919C3.99113 16.1971 4.32547 15.48 4.80107 14.9004ZM5.96068 17.0651C5.95147 17.3163 6.03082 17.6225 6.3353 17.9708C7.33454 19.1139 9.07106 20 11.9999 20C14.9288 20 16.6653 19.1139 17.6645 17.9708C17.969 17.6225 18.0484 17.3163 18.0392 17.0651C18.0293 16.7971 17.9135 16.487 17.6527 16.1692C17.117 15.5164 16.0986 15 14.9999 15H8.99992C7.90124 15 6.8828 15.5164 6.34713 16.1692C6.08635 16.487 5.97049 16.7971 5.96068 17.0651Z" fill="#4A465C"/>
</svg>
