<svg width="36" height="19" viewBox="0 0 36 19" fill="none" xmlns="http://www.w3.org/2000/svg">
    <path fill-rule="evenodd" clip-rule="evenodd"
          d="M17.5069 10.6144L13.3827 12.7345L10.2766 9.82716L13.2503 7.04371L13.3145 7.07585L13.3149 7.07542L13.3669 7.10209L13.4486 7.14304L13.4479 7.14371L17.5067 9.22951C17.8355 9.38337 17.9999 9.61416 17.9999 9.84496C17.9999 9.87053 17.9979 9.89611 17.9938 9.92158C17.9979 9.94731 18 9.97315 18 9.99898C18 10.2298 17.8356 10.4606 17.5069 10.6144ZM12.2992 6.56721L1.64571 1.22972L1.64384 1.22876C1.40168 1.07765 1.23879 1.00074 0.843759 0.998037L9.54647 9.1438L12.2992 6.56721ZM8.81639 9.82716L0.0361122 1.60879C0.0127895 1.68375 0 1.76278 0 1.84421V9.92205V18.0793L8.81639 9.82716ZM0.53948 18.9411C0.630146 18.9791 0.726032 19 0.821918 19C1.17831 19 1.41107 18.8843 1.57381 18.8034C1.59873 18.791 1.62201 18.7794 1.64384 18.7692L12.4402 13.2191L9.54647 10.5105L0.53948 18.9411Z"
          fill="#B5B5B5"/>
    <path d="M31.8445 10.6543C31.8445 8.4054 33.7307 7.31723 33.8032 7.24468C32.7151 5.72124 31.1191 5.50361 30.5387 5.43106C29.1604 5.28598 27.782 6.22906 27.1291 6.22906C26.4036 6.22906 25.3155 5.43106 24.1548 5.43106C22.6313 5.43106 21.253 6.3016 20.455 7.67996C18.859 10.4367 20.0197 14.4992 21.5431 16.7481C22.3411 17.8362 23.2117 19.0695 24.3724 18.997C25.5331 18.9244 25.9684 18.2715 27.3467 18.2715C28.7251 18.2715 29.0878 18.997 30.3211 18.997C31.5543 18.997 32.3523 17.9088 33.0778 16.8206C33.9483 15.5873 34.311 14.3541 34.311 14.2815C34.2385 14.209 31.8445 13.3385 31.8445 10.6543Z"
          fill="#B5B5B5"/>
    <path d="M29.5955 3.98028C30.1759 3.18229 30.6112 2.16666 30.5386 1.07849C29.6681 1.15103 28.5074 1.65885 27.927 2.45684C27.3466 3.10974 26.8388 4.19791 26.9839 5.21354C27.927 5.28609 28.9426 4.70573 29.5955 3.98028Z"
          fill="#B5B5B5"/>
</svg>
