<svg width="100" height="85" viewBox="0 0 100 85" fill="none" xmlns="http://www.w3.org/2000/svg">
    <g opacity="0.2">
        <path d="M45.1342 33.2088L46.8059 44.8057L56.7573 52.2497M72.8989 41.0445C73.3928 44.4711 73.207 47.9614 72.3521 51.3162C71.4971 54.671 69.9897 57.8245 67.916 60.5967C65.8423 63.3689 63.2429 65.7056 60.2662 67.4732C57.2894 69.2408 53.9937 70.4049 50.5671 70.8988C47.1405 71.3927 43.6502 71.2069 40.2954 70.3519C36.9406 69.497 33.7871 67.9896 31.0149 65.9159C28.2427 63.8422 25.906 61.2428 24.1384 58.266C22.3708 55.2893 21.2067 51.9936 20.7128 48.567C19.7153 41.6467 21.5077 34.6135 25.6957 29.0148C29.8837 23.416 36.1243 19.7102 43.0446 18.7127C49.9649 17.7151 56.9981 19.5075 62.5968 23.6956C68.1956 27.8836 71.9014 34.1242 72.8989 41.0445Z"
              stroke="#FBFBFB" stroke-width="5" stroke-linecap="round" stroke-linejoin="round"/>
    </g>
    <path opacity="0.2" fill-rule="evenodd" clip-rule="evenodd"
          d="M7.00003 2.80002C7.37133 2.80002 7.72743 2.94752 7.98998 3.21007C8.25253 3.47262 8.40003 3.82872 8.40003 4.20002V5.60002H9.80003C10.1713 5.60002 10.5274 5.74752 10.79 6.01007C11.0525 6.27262 11.2 6.62872 11.2 7.00002C11.2 7.37132 11.0525 7.72742 10.79 7.98997C10.5274 8.25252 10.1713 8.40002 9.80003 8.40002H8.40003V9.80002C8.40003 10.1713 8.25253 10.5274 7.98998 10.79C7.72743 11.0525 7.37133 11.2 7.00003 11.2C6.62873 11.2 6.27263 11.0525 6.01008 10.79C5.74753 10.5274 5.60003 10.1713 5.60003 9.80002V8.40002H4.20003C3.82873 8.40002 3.47263 8.25252 3.21008 7.98997C2.94753 7.72742 2.80003 7.37132 2.80003 7.00002C2.80003 6.62872 2.94753 6.27262 3.21008 6.01007C3.47263 5.74752 3.82873 5.60002 4.20003 5.60002H5.60003V4.20002C5.60003 3.82872 5.74753 3.47262 6.01008 3.21007C6.27263 2.94752 6.62873 2.80002 7.00003 2.80002ZM7.00003 16.8C7.37133 16.8 7.72743 16.9475 7.98998 17.2101C8.25253 17.4726 8.40003 17.8287 8.40003 18.2V19.6H9.80003C10.1713 19.6 10.5274 19.7475 10.79 20.0101C11.0525 20.2726 11.2 20.6287 11.2 21C11.2 21.3713 11.0525 21.7274 10.79 21.99C10.5274 22.2525 10.1713 22.4 9.80003 22.4H8.40003V23.8C8.40003 24.1713 8.25253 24.5274 7.98998 24.79C7.72743 25.0525 7.37133 25.2 7.00003 25.2C6.62873 25.2 6.27263 25.0525 6.01008 24.79C5.74753 24.5274 5.60003 24.1713 5.60003 23.8V22.4H4.20003C3.82873 22.4 3.47263 22.2525 3.21008 21.99C2.94753 21.7274 2.80003 21.3713 2.80003 21C2.80003 20.6287 2.94753 20.2726 3.21008 20.0101C3.47263 19.7475 3.82873 19.6 4.20003 19.6H5.60003V18.2C5.60003 17.8287 5.74753 17.4726 6.01008 17.2101C6.27263 16.9475 6.62873 16.8 7.00003 16.8ZM16.8 2.80002C17.109 2.79992 17.4093 2.90203 17.6542 3.09043C17.8991 3.27883 18.0747 3.54295 18.1538 3.84162L19.8044 10.08L24.5 12.7876C24.7128 12.9105 24.8896 13.0872 25.0124 13.3C25.1353 13.5129 25.2 13.7543 25.2 14C25.2 14.2458 25.1353 14.4872 25.0124 14.7C24.8896 14.9128 24.7128 15.0895 24.5 15.2124L19.8044 17.9214L18.1524 24.1584C18.0732 24.4568 17.8975 24.7206 17.6528 24.9088C17.4081 25.097 17.1081 25.1991 16.7993 25.1991C16.4906 25.1991 16.1905 25.097 15.9458 24.9088C15.7011 24.7206 15.5255 24.4568 15.4462 24.1584L13.7956 17.92L9.10003 15.2124C8.88722 15.0895 8.7105 14.9128 8.58764 14.7C8.46477 14.4872 8.40009 14.2458 8.40009 14C8.40009 13.7543 8.46477 13.5129 8.58764 13.3C8.7105 13.0872 8.88722 12.9105 9.10003 12.7876L13.7956 10.0786L15.4476 3.84162C15.5267 3.54318 15.7021 3.27924 15.9467 3.09086C16.1913 2.90248 16.4913 2.80023 16.8 2.80002V2.80002Z"
          fill="#FBFBFB"/>
    <path opacity="0.2" fill-rule="evenodd" clip-rule="evenodd"
          d="M94.9997 36C94.7345 36 94.4802 36.1053 94.2926 36.2929C94.1051 36.4804 93.9997 36.7348 93.9997 37V38H92.9997C92.7345 38 92.4802 38.1053 92.2926 38.2929C92.1051 38.4804 91.9997 38.7348 91.9997 39C91.9997 39.2652 92.1051 39.5196 92.2926 39.7071C92.4802 39.8946 92.7345 40 92.9997 40H93.9997V41C93.9997 41.2652 94.1051 41.5196 94.2926 41.7071C94.4802 41.8946 94.7345 42 94.9997 42C95.265 42 95.5193 41.8946 95.7068 41.7071C95.8944 41.5196 95.9997 41.2652 95.9997 41V40H96.9997C97.265 40 97.5193 39.8946 97.7068 39.7071C97.8944 39.5196 97.9997 39.2652 97.9997 39C97.9997 38.7348 97.8944 38.4804 97.7068 38.2929C97.5193 38.1053 97.265 38 96.9997 38H95.9997V37C95.9997 36.7348 95.8944 36.4804 95.7068 36.2929C95.5193 36.1053 95.265 36 94.9997 36ZM94.9997 46C94.7345 46 94.4802 46.1053 94.2926 46.2929C94.1051 46.4804 93.9997 46.7348 93.9997 47V48H92.9997C92.7345 48 92.4802 48.1053 92.2926 48.2929C92.1051 48.4804 91.9997 48.7348 91.9997 49C91.9997 49.2652 92.1051 49.5196 92.2926 49.7071C92.4802 49.8946 92.7345 50 92.9997 50H93.9997V51C93.9997 51.2652 94.1051 51.5196 94.2926 51.7071C94.4802 51.8946 94.7345 52 94.9997 52C95.265 52 95.5193 51.8946 95.7068 51.7071C95.8944 51.5196 95.9997 51.2652 95.9997 51V50H96.9997C97.265 50 97.5193 49.8946 97.7068 49.7071C97.8944 49.5196 97.9997 49.2652 97.9997 49C97.9997 48.7348 97.8944 48.4804 97.7068 48.2929C97.5193 48.1053 97.265 48 96.9997 48H95.9997V47C95.9997 46.7348 95.8944 46.4804 95.7068 46.2929C95.5193 46.1053 95.265 46 94.9997 46ZM87.9997 36C87.7791 35.9999 87.5645 36.0728 87.3896 36.2074C87.2147 36.342 87.0892 36.5306 87.0327 36.744L85.8537 41.2L82.4997 43.134C82.3477 43.2218 82.2215 43.348 82.1337 43.5C82.046 43.652 81.9998 43.8245 81.9998 44C81.9998 44.1755 82.046 44.3479 82.1337 44.5C82.2215 44.652 82.3477 44.7782 82.4997 44.866L85.8537 46.801L87.0337 51.256C87.0903 51.4691 87.2158 51.6576 87.3906 51.792C87.5654 51.9264 87.7797 51.9993 88.0002 51.9993C88.2208 51.9993 88.4351 51.9264 88.6099 51.792C88.7847 51.6576 88.9101 51.4691 88.9667 51.256L90.1457 46.8L93.4997 44.866C93.6517 44.7782 93.778 44.652 93.8657 44.5C93.9535 44.3479 93.9997 44.1755 93.9997 44C93.9997 43.8245 93.9535 43.652 93.8657 43.5C93.778 43.348 93.6517 43.2218 93.4997 43.134L90.1457 41.199L88.9657 36.744C88.9093 36.5308 88.784 36.3423 88.6093 36.2077C88.4345 36.0732 88.2203 36.0001 87.9997 36V36Z"
          fill="#FBFBFB"/>
</svg>
