<svg width="85" height="70" viewBox="0 0 85 70" fill="none" xmlns="http://www.w3.org/2000/svg">
    <g clip-path="url(#clip0)">
        <g opacity="0.2" clip-path="url(#clip1)">
            <path d="M61.6164 43.4328L52.9904 58.1721C52.6133 58.8172 52.1128 59.3817 51.5174 59.8332C50.922 60.2847 50.2435 60.6145 49.5206 60.8036C48.7977 60.9928 48.0446 61.0376 47.3044 60.9355C46.5641 60.8334 45.8513 60.5865 45.2066 60.2087L30.4645 51.5835C26.578 49.3088 23.4533 45.9328 21.4855 41.8824C19.5177 37.8319 18.7952 33.2889 19.4094 28.8278C20.0235 24.3667 21.9467 20.1879 24.9358 16.8198C27.9248 13.4517 31.8455 11.0456 36.202 9.90578C40.5586 8.76593 45.1552 8.94352 49.4108 10.4161C53.6664 11.8887 57.3898 14.5901 60.1101 18.1787C62.8304 21.7674 64.4254 26.0821 64.6936 30.5773C64.9617 35.0725 63.8908 39.5462 61.6164 43.4328V43.4328Z"
                  stroke="#FBFBFB" stroke-width="5" stroke-linecap="round" stroke-linejoin="round"/>
            <path d="M50.2254 29.771C50.7986 31.9618 50.4781 34.2905 49.3343 36.2449C48.1905 38.1993 46.3172 39.6193 44.1264 40.1925C41.9357 40.7656 39.607 40.4451 37.6526 39.3013C35.6982 38.1575 34.2782 36.2842 33.705 34.0935C33.1318 31.9027 33.4524 29.574 34.5962 27.6196C35.7399 25.6652 37.6133 24.2453 39.804 23.6721C41.9947 23.0989 44.3235 23.4194 46.2778 24.5632C48.2322 25.707 49.6522 27.5803 50.2254 29.771V29.771Z"
                  stroke="#FBFBFB" stroke-width="5" stroke-linecap="round" stroke-linejoin="round"/>
        </g>
    </g>
    <defs>
        <clipPath id="clip0">
            <rect width="85" height="70" fill="white"/>
        </clipPath>
        <clipPath id="clip1">
            <rect width="68.306" height="68.306" fill="white" transform="translate(1 10.2898) rotate(-14.6624)"/>
        </clipPath>
    </defs>
</svg>
