<svg width="71" height="34" viewBox="0 0 71 34" fill="none" xmlns="http://www.w3.org/2000/svg">
    <path d="M3.19326 15.0354V0.551727H0.689651V15.0354H3.19326Z" fill="#757575"/>
    <path d="M15.8081 0.551727L11.8768 11.3731L7.94556 0.551727H5.27642L10.5319 15.0561H13.2011L18.4773 0.551727H15.8081Z"
          fill="#757575"/>
    <path d="M25.1832 0.551727H22.5141L17.2586 15.0561H19.9277L23.859 4.23472L27.7903 15.0561H30.4594L25.1832 0.551727Z"
          fill="#757575"/>
    <path d="M37.9882 0.551727V10.111L32.3396 0.551727H29.4428L37.9882 15.0354H40.4918V0.551727H37.9882Z"
          fill="#757575"/>
    <path d="M49.7979 0.551727C45.8045 0.551727 42.5768 3.80021 42.5768 7.79357C42.5768 11.8076 45.8045 15.0354 49.7979 15.0354C53.812 15.0354 57.0398 11.8076 57.0398 7.79357C57.0398 3.80021 53.812 0.551727 49.7979 0.551727ZM49.7979 12.5318C47.1908 12.5318 45.0804 10.4213 45.0804 7.81426C45.0804 5.18651 47.1908 3.07603 49.7979 3.07603C52.4257 3.07603 54.5361 5.18651 54.5361 7.81426C54.5361 10.4213 52.4257 12.5318 49.7979 12.5318Z"
          fill="#757575"/>
    <path d="M67.5962 0.551727L63.6649 11.3731L59.7336 0.551727H57.0645L62.32 15.0561H64.9891L70.2653 0.551727H67.5962Z"
          fill="#757575"/>
    <path d="M5.94516 18.9437L0.689651 33.4274H3.35879L8.6143 18.9437H5.94516Z" fill="#757575"/>
    <path d="M15.9674 18.9437L10.7118 33.4274H13.381L18.6365 18.9437H15.9674Z" fill="#757575"/>
    <path d="M20.734 18.9437V21.468H24.5826V33.4274H27.0862V21.468H30.9347V18.9437H20.734Z" fill="#757575"/>
    <path d="M43.22 33.4481V30.9238H33.0193V33.4481H43.22ZM43.22 21.468V18.9437H33.0193V21.468H43.22ZM41.5026 27.4477V24.9441H33.0193V27.4477H41.5026Z"
          fill="#757575"/>
    <path d="M53.2292 18.9437H50.5601L45.3046 33.4481H47.9737L51.905 22.6267L55.8363 33.4481H58.5054L53.2292 18.9437Z"
          fill="#757575"/>
    <path d="M68.0205 18.9437L64.0892 29.7651L60.1579 18.9437H57.4888L62.7443 33.4481H65.4135L68.186 25.8545V33.4274H70.6897V18.9437H68.0205Z"
          fill="#757575"/>
</svg>
