<svg width="48" height="14" viewBox="0 0 48 14" fill="none" xmlns="http://www.w3.org/2000/svg">
    <path fill-rule="evenodd" clip-rule="evenodd"
          d="M12.934 0.5V0.506C12.929 0.506 11.06 0.5 10.561 2.271C9.97117 4.34867 9.37784 6.42534 8.781 8.501H8.425C8.425 8.501 7.108 3.918 6.645 2.265C6.147 0.495 4.272 0.5 4.272 0.5H0V13.974H4.272V5.972H4.628L7.12 13.974H10.087L12.578 5.978H12.934V13.974H17.206V0.5H12.934ZM28.539 0.5C28.539 0.5 27.287 0.612 26.699 1.912L23.674 8.502H23.318V0.5H19.046V13.974H23.08C23.08 13.974 24.392 13.856 24.979 12.562L27.946 5.972H28.302V13.974H32.574V0.5H28.539V0.5ZM34.472 6.62V13.974H38.744V9.679H43.372C44.3259 9.68155 45.2571 9.38878 46.038 8.84089C46.8188 8.293 47.4109 7.51685 47.733 6.619H34.473L34.472 6.62Z"
          fill="#69B267"/>
    <path fill-rule="evenodd" clip-rule="evenodd"
          d="M43.373 0.5H33.873C34.348 3.065 36.288 5.125 38.798 5.795C39.3805 5.95161 39.9809 6.03095 40.584 6.031H47.906C47.971 5.725 48 5.413 48 5.089C48 2.553 45.93 0.5 43.373 0.5Z"
          fill="url(#paint0_linear)"/>
    <defs>
        <linearGradient id="paint0_linear" x1="33.8742" y1="3.2655" x2="48" y2="3.2655" gradientUnits="userSpaceOnUse">
            <stop offset="0.3" stop-color="#50B1E1"/>
            <stop offset="1" stop-color="#3E8AC6"/>
        </linearGradient>
    </defs>
</svg>
