<svg width="602" height="432" viewBox="0 0 602 432" fill="none" xmlns="http://www.w3.org/2000/svg">
    <path d="M297.913 93.146C300.155 92.1246 301.956 92.5861 302.576 92.9445C303.196 93.3029 304.495 94.6335 304.733 97.0884C305.03 100.157 304.886 102.557 303.275 105.35C301.665 108.144 299.482 109.779 302.141 110.902C304.8 112.025 306.398 112.121 306.97 113.28C307.427 114.206 304.934 115.138 303.63 115.487L298.871 117.289C298.1 117.671 296.929 118.649 298.417 119.51C300.277 120.585 304.713 121.494 305.106 122.962C305.421 124.137 302.685 125.011 301.278 125.301C297.724 125.73 289.922 126.931 287.146 128.306C283.675 130.024 282.47 131.397 280.859 134.19L276.027 142.57C275.533 143.427 274.438 143.721 273.582 143.226C272.726 142.731 272.433 141.635 272.927 140.778L277.759 132.398C279.37 129.605 279.955 127.874 279.706 124.005C279.506 120.91 276.644 113.545 275.238 110.249C274.786 108.883 274.173 106.074 275.347 105.759C276.814 105.366 279.818 108.758 281.678 109.833C283.166 110.693 283.427 109.189 283.372 108.329L282.55 103.302C282.201 101.996 281.76 99.3687 282.79 99.3021C284.078 99.219 284.96 100.557 287.261 102.301C289.562 104.044 289.885 101.334 291.496 98.5408C293.106 95.7473 295.11 94.4227 297.913 93.146Z"
          fill="#E1E1E1"/>
    <path d="M21.457 43.1176C23.5638 41.8393 25.406 42.0857 26.0637 42.3686C26.7215 42.6515 28.1682 43.8199 28.6925 46.2298C29.3479 49.2422 29.4869 51.6424 28.2153 54.606C26.9437 57.5697 24.9681 59.4504 27.7404 60.2528C30.5128 61.0552 32.1109 60.9625 32.815 62.0455C33.3782 62.9119 31.0115 64.1302 29.7577 64.6311L25.2436 66.9802C24.5225 67.4502 23.475 68.5599 25.0536 69.2389C27.0269 70.0877 31.5387 70.4681 32.1015 71.8804C32.5517 73.0102 29.9374 74.2001 28.574 74.6538C25.0952 75.4979 17.4886 77.609 14.8927 79.3009C11.6478 81.4158 10.6125 82.9209 9.34095 85.8845L5.52621 94.7756C5.13606 95.6849 4.08355 96.1054 3.17537 95.7147C2.26718 95.3241 1.84723 94.2703 2.23738 93.3609L6.05212 84.4699C7.3237 81.5062 7.70125 79.7183 6.99952 75.9058C6.43814 72.8559 2.73107 65.8784 0.947703 62.7709C0.337814 61.4684 -0.599862 58.7506 0.528549 58.2998C1.93906 57.7363 5.32053 60.7511 7.29383 61.5999C8.87248 62.2789 8.95526 60.7542 8.79932 59.907L7.39349 55.0116C6.89323 53.7562 6.14655 51.1986 7.16194 51.0113C8.43116 50.7771 9.46413 52.0015 11.9539 53.4625C14.4437 54.9235 14.4461 52.1941 15.7176 49.2304C16.9892 46.2667 18.8236 44.7153 21.457 43.1176Z"
          fill="#E1E1E1"/>
    <path d="M148.125 101.08C149.557 99.0734 151.346 98.5717 152.062 98.5717C152.778 98.5717 154.568 99.0734 156 101.08C157.79 103.589 158.863 105.74 158.863 108.965C158.863 112.191 157.79 114.7 160.653 114.341C163.517 113.983 164.949 113.266 166.022 113.983C166.881 114.556 165.187 116.611 164.233 117.567L161.011 121.509C160.534 122.226 160.009 123.659 161.727 123.659C163.875 123.659 168.17 122.226 169.244 123.301C170.103 124.161 168.17 126.288 167.096 127.243C164.233 129.394 158.076 134.34 156.358 136.92C154.21 140.146 153.852 141.938 153.852 145.163V154.84C153.852 155.83 153.051 156.632 152.062 156.632C151.074 156.632 150.273 155.83 150.273 154.84V145.163C150.273 141.938 149.915 140.146 147.767 136.92C146.049 134.34 139.892 129.394 137.029 127.243C135.955 126.288 134.022 124.161 134.881 123.301C135.955 122.226 140.25 123.659 142.398 123.659C144.116 123.659 143.591 122.226 143.114 121.509L139.892 117.567C138.938 116.611 137.243 114.556 138.102 113.983C139.176 113.266 140.608 113.983 143.472 114.341C146.335 114.7 145.261 112.191 145.261 108.965C145.261 105.74 146.335 103.589 148.125 101.08Z"
          fill="#E1E1E1"/>
    <path d="M184.63 263.863C187.228 261.632 189.792 261.559 190.749 261.801C191.706 262.043 193.927 263.326 195.156 266.525C196.692 270.523 197.393 273.795 196.293 278.158C195.192 282.521 192.9 285.551 196.85 286.034C200.8 286.518 202.959 286.032 204.15 287.365C205.102 288.431 202.136 290.637 200.534 291.607L194.883 295.851C194 296.659 192.809 298.42 195.106 299.001C197.977 299.727 204.207 299.24 205.276 301.058C206.13 302.512 202.821 304.734 201.06 305.664C196.498 307.604 186.581 312.213 183.404 315.122C179.432 318.759 178.342 321.061 177.242 325.424L173.932 338.541C173.598 339.864 172.257 340.666 170.936 340.331C169.614 339.997 168.814 338.654 169.148 337.331L172.457 324.214C173.558 319.851 173.691 317.306 171.921 312.217C170.505 308.146 163.963 299.375 160.869 295.498C159.76 293.843 157.902 290.313 159.344 289.44C161.146 288.349 166.398 291.74 169.269 292.466C171.566 293.047 171.353 290.931 170.96 289.8L167.999 283.378C167.049 281.763 165.486 278.411 166.83 277.925C168.51 277.319 170.179 278.773 173.884 280.226C177.59 281.678 177.011 277.922 178.111 273.559C179.212 269.196 181.381 266.651 184.63 263.863Z"
          fill="#E1E1E1"/>
    <path d="M423.807 86.6307C423.428 84.1935 424.357 82.5817 424.869 82.0804C425.38 81.5791 427.01 80.6845 429.436 81.1166C432.467 81.6567 434.737 82.4419 436.99 84.7476C439.242 87.0532 440.227 89.5984 442.024 87.3371C443.82 85.0759 444.343 83.5609 445.611 83.3214C446.626 83.1298 446.85 85.7849 446.835 87.1364L447.286 92.2102C447.445 93.0567 448.071 94.4491 449.3 93.246C450.835 91.7422 452.904 87.7098 454.422 87.7265C455.637 87.7398 455.741 90.6132 455.641 92.0483C455.096 95.5905 454.149 103.437 454.724 106.484C455.441 110.294 456.437 111.825 458.69 114.131L465.449 121.048C466.14 121.755 466.128 122.89 465.421 123.582C464.714 124.274 463.581 124.262 462.89 123.554L456.131 116.637C453.878 114.332 452.371 113.301 448.583 112.5C445.552 111.858 437.697 112.634 434.148 113.102C432.713 113.171 429.846 113.004 429.86 111.788C429.876 110.267 433.948 108.284 435.483 106.78C436.711 105.577 435.335 104.92 434.493 104.742L429.437 104.18C428.087 104.165 425.44 103.883 425.654 102.871C425.921 101.607 427.445 101.117 429.742 99.3677C432.039 97.6188 429.52 96.5774 427.267 94.2718C425.014 91.9661 424.279 89.6771 423.807 86.6307Z"
          fill="#E1E1E1"/>
    <path d="M578.148 387.005C578.325 385.177 579.292 384.187 579.754 383.92C580.215 383.654 581.555 383.31 583.224 384.07C585.31 385.02 586.802 386.006 588.001 388.086C589.2 390.165 589.44 392.182 591.152 390.884C592.865 389.586 593.522 388.59 594.48 388.652C595.247 388.702 594.919 390.658 594.659 391.629L594.047 395.371C594.006 396.011 594.201 397.131 595.308 396.49C596.693 395.69 598.928 393.165 600.02 393.458C600.894 393.693 600.438 395.784 600.101 396.8C599.055 399.253 596.924 404.735 596.776 407.039C596.591 409.918 597.026 411.207 598.225 413.286L601.821 419.523C602.189 420.161 601.971 420.977 601.334 421.345C600.697 421.714 599.882 421.495 599.514 420.857L595.917 414.62C594.719 412.54 593.822 411.519 591.239 410.24C589.172 409.217 583.365 408.323 580.72 408.004C579.672 407.788 577.636 407.137 577.87 406.263C578.163 405.17 581.464 404.493 582.849 403.693C583.956 403.053 583.085 402.324 582.511 402.04L578.969 400.699C577.999 400.439 576.143 399.746 576.483 399.056C576.909 398.194 578.098 398.122 580.077 397.286C582.056 396.45 580.432 395.233 579.233 393.154C578.034 391.075 577.927 389.289 578.148 387.005Z"
          fill="#E1E1E1"/>
    <path d="M315.143 232.105C317.591 231.823 319.163 232.816 319.643 233.348C320.123 233.88 320.951 235.545 320.424 237.955C319.765 240.967 318.892 243.206 316.502 245.369C314.112 247.532 311.534 248.417 313.719 250.303C315.905 252.19 317.396 252.773 317.585 254.051C317.736 255.074 315.078 255.193 313.73 255.125L308.648 255.376C307.797 255.502 306.383 256.073 307.535 257.35C308.975 258.945 312.918 261.174 312.841 262.693C312.78 263.908 309.908 263.898 308.48 263.741C304.967 263.056 297.174 261.799 294.11 262.254C290.28 262.821 288.712 263.757 286.322 265.92L279.152 272.409C278.419 273.072 277.287 273.015 276.624 272.281C275.962 271.547 276.019 270.414 276.752 269.75L283.922 263.261C286.312 261.098 287.399 259.631 288.349 255.872C289.109 252.866 288.645 244.976 288.318 241.407C288.306 239.969 288.585 237.107 289.799 237.168C291.315 237.245 293.134 241.397 294.574 242.992C295.726 244.268 296.436 242.917 296.647 242.082L297.408 237.045C297.476 235.696 297.862 233.059 298.863 233.313C300.114 233.63 300.543 235.174 302.198 237.541C303.853 239.909 304.991 237.429 307.381 235.266C309.771 233.103 312.085 232.458 315.143 232.105Z"
          fill="#E1E1E1"/>
    <path d="M324.657 17.9456C317.473 19.9828 309.467 13.9167 309.467 13.9167C309.467 13.9167 313.107 4.54768 320.291 2.51046C327.474 0.473245 335.481 6.53932 335.481 6.53932C335.481 6.53932 331.841 15.9084 324.657 17.9456Z"
          fill="#E1E1E1"/>
    <path d="M55.2023 195.339C55.2023 202.861 47.3274 208.958 47.3274 208.958C47.3274 208.958 39.4525 202.861 39.4525 195.339C39.4525 187.817 47.3274 181.72 47.3274 181.72C47.3274 181.72 55.2023 187.817 55.2023 195.339Z"
          fill="#E1E1E1"/>
    <path d="M448.229 249.099C448.229 256.62 440.354 262.718 440.354 262.718C440.354 262.718 432.48 256.62 432.48 249.099C432.48 241.577 440.354 235.479 440.354 235.479C440.354 235.479 448.229 241.577 448.229 249.099Z"
          fill="#E1E1E1"/>
    <path d="M457.839 371.215C450.328 371.361 444.086 363.596 444.086 363.596C444.086 363.596 450.022 355.594 457.533 355.448C465.044 355.302 471.285 363.067 471.285 363.067C471.285 363.067 465.35 371.069 457.839 371.215Z"
          fill="#E1E1E1"/>
    <path d="M60.2434 347.329C55.7702 351.808 47.588 350.877 47.588 350.877C47.588 350.877 46.6583 342.685 51.1315 338.206C55.6047 333.727 63.7869 334.658 63.7869 334.658C63.7869 334.658 64.7166 342.85 60.2434 347.329Z"
          fill="#E1E1E1"/>
    <path d="M128.779 22.3401C121.366 30.032 107.115 28.3043 107.115 28.3043C107.115 28.3043 104.881 14.1054 112.293 6.41351C119.705 -1.27842 133.957 0.449345 133.957 0.449345C133.957 0.449345 136.191 14.6482 128.779 22.3401Z"
          fill="#E1E1E1"/>
    <path d="M319.531 424.944C315.112 431.307 304.71 431.717 304.71 431.717C304.71 431.717 301.474 421.81 305.894 415.447C310.313 409.084 320.715 408.674 320.715 408.674C320.715 408.674 323.951 418.581 319.531 424.944Z"
          fill="#E1E1E1"/>
    <path d="M525.546 35.4937C525.546 46.1823 514.092 54.8472 514.092 54.8472C514.092 54.8472 502.637 46.1823 502.637 35.4937C502.637 24.8051 514.092 16.1403 514.092 16.1403C514.092 16.1403 525.546 24.8051 525.546 35.4937Z"
          fill="#E1E1E1"/>
    <path d="M565.163 184.174C559.684 187.341 551.849 184.023 551.849 184.023C551.849 184.023 552.896 175.569 558.375 172.402C563.854 169.235 571.69 172.553 571.69 172.553C571.69 172.553 570.642 181.007 565.163 184.174Z"
          fill="#E1E1E1"/>
</svg>
