<svg width="168" height="24" viewBox="0 0 168 24" fill="none" xmlns="http://www.w3.org/2000/svg">
    <path d="M12.1387 8.9668C10.3887 8.9668 8.99414 10.3887 8.99414 12.1113C8.99414 13.8613 10.3887 15.2559 12.1387 15.2559C13.8613 15.2559 15.2832 13.8613 15.2832 12.1113C15.2832 10.3887 13.8613 8.9668 12.1387 8.9668ZM12.1387 14.1621C11.0176 14.1621 10.0879 13.2598 10.0879 12.1113C10.0879 10.9902 10.9902 10.0879 12.1387 10.0879C13.2598 10.0879 14.1621 10.9902 14.1621 12.1113C14.1621 13.2598 13.2598 14.1621 12.1387 14.1621ZM16.1309 8.85742C16.1309 8.44727 15.8027 8.11914 15.3926 8.11914C14.9824 8.11914 14.6543 8.44727 14.6543 8.85742C14.6543 9.26758 14.9824 9.5957 15.3926 9.5957C15.8027 9.5957 16.1309 9.26758 16.1309 8.85742ZM18.209 9.5957C18.1543 8.61133 17.9355 7.73633 17.2246 7.02539C16.5137 6.31445 15.6387 6.0957 14.6543 6.04102C13.6426 5.98633 10.6074 5.98633 9.5957 6.04102C8.61133 6.0957 7.76367 6.31445 7.02539 7.02539C6.31445 7.73633 6.0957 8.61133 6.04102 9.5957C5.98633 10.6074 5.98633 13.6426 6.04102 14.6543C6.0957 15.6387 6.31445 16.4863 7.02539 17.2246C7.76367 17.9355 8.61133 18.1543 9.5957 18.209C10.6074 18.2637 13.6426 18.2637 14.6543 18.209C15.6387 18.1543 16.5137 17.9355 17.2246 17.2246C17.9355 16.4863 18.1543 15.6387 18.209 14.6543C18.2637 13.6426 18.2637 10.6074 18.209 9.5957ZM16.8965 15.7207C16.7051 16.2676 16.2676 16.6777 15.748 16.8965C14.9277 17.2246 13.0137 17.1426 12.1387 17.1426C11.2363 17.1426 9.32227 17.2246 8.5293 16.8965C7.98242 16.6777 7.57227 16.2676 7.35352 15.7207C7.02539 14.9277 7.10742 13.0137 7.10742 12.1113C7.10742 11.2363 7.02539 9.32227 7.35352 8.50195C7.57227 7.98242 7.98242 7.57227 8.5293 7.35352C9.32227 7.02539 11.2363 7.10742 12.1387 7.10742C13.0137 7.10742 14.9277 7.02539 15.748 7.35352C16.2676 7.54492 16.6777 7.98242 16.8965 8.50195C17.2246 9.32227 17.1426 11.2363 17.1426 12.1113C17.1426 13.0137 17.2246 14.9277 16.8965 15.7207Z"
          fill="white"/>
    <path d="M43.4102 8.60156C43.4922 8.27344 43.4102 8 42.918 8H41.3047C40.8945 8 40.7031 8.21875 40.5938 8.46484C40.5938 8.46484 39.7734 10.4609 38.625 11.7734C38.2422 12.1289 38.0781 12.2656 37.8594 12.2656C37.7773 12.2656 37.6133 12.1289 37.6133 11.8008V8.60156C37.6133 8.19141 37.5039 8 37.1484 8H34.6328C34.3594 8 34.2227 8.19141 34.2227 8.38281C34.2227 8.76562 34.7969 8.84766 34.8516 9.94141V12.3203C34.8516 12.8398 34.7695 12.9492 34.5508 12.9492C34.0039 12.9492 32.6914 10.9258 31.8984 8.62891C31.7344 8.19141 31.5703 8 31.1602 8H29.5469C29.1094 8 29 8.21875 29 8.46484C29 8.90234 29.5469 11.0078 31.543 13.8242C32.8828 15.7383 34.7695 16.75 36.4648 16.75C37.4766 16.75 37.6133 16.5312 37.6133 16.1484C37.6133 14.3164 37.5312 14.125 38.0234 14.125C38.2695 14.125 38.6797 14.2617 39.6367 15.1914C40.7305 16.2852 40.9219 16.75 41.5234 16.75H43.1367C43.6016 16.75 43.8203 16.5312 43.6836 16.0664C43.3828 15.1367 41.332 13.168 41.2227 13.0312C40.9766 12.7305 41.0586 12.5938 41.2227 12.3203C41.2227 12.3203 43.1914 9.53125 43.4102 8.60156Z"
          fill="white"/>
    <path d="M65.206 7.93103C65.3701 7.1654 64.9326 6.86462 64.4404 7.05603L53.5576 11.2396C52.8193 11.5404 52.8467 11.9506 53.4482 12.142L56.2099 12.9896L62.6631 8.94275C62.9639 8.724 63.2646 8.86072 63.0185 9.05212L57.7959 13.7552L57.6045 16.6263C57.9053 16.6263 58.0146 16.517 58.1787 16.3529L59.5185 15.0404L62.3349 17.1185C62.8545 17.4193 63.2373 17.2552 63.374 16.6537L65.206 7.93103Z"
          fill="white"/>
    <path d="M89.5508 8.81641C90.0977 8.40625 90.5898 7.91406 90.9727 7.33984C90.4805 7.55859 89.9062 7.72266 89.332 7.77734C89.9336 7.42188 90.3711 6.875 90.5898 6.19141C90.043 6.51953 89.4141 6.76562 88.7852 6.90234C88.2383 6.32812 87.5 6 86.6797 6C85.0938 6 83.8086 7.28516 83.8086 8.87109C83.8086 9.08984 83.8359 9.30859 83.8906 9.52734C81.5117 9.39062 79.3789 8.24219 77.957 6.51953C77.7109 6.92969 77.5742 7.42188 77.5742 7.96875C77.5742 8.95312 78.0664 9.82812 78.8594 10.3477C78.3945 10.3203 77.9297 10.2109 77.5469 9.99219V10.0195C77.5469 11.4141 78.5312 12.5625 79.8438 12.8359C79.625 12.8906 79.3516 12.9453 79.1055 12.9453C78.9141 12.9453 78.75 12.918 78.5586 12.8906C78.9141 14.0391 79.9805 14.8594 81.2383 14.8867C80.2539 15.6523 79.0234 16.1172 77.6836 16.1172C77.4375 16.1172 77.2188 16.0898 77 16.0625C78.2578 16.8828 79.7617 17.3477 81.4023 17.3477C86.6797 17.3477 89.5508 13 89.5508 9.19922C89.5508 9.0625 89.5508 8.95312 89.5508 8.81641Z"
          fill="white"/>
    <path d="M111.027 12.875L111.41 10.3594H108.977V8.71875C108.977 8.00781 109.305 7.35156 110.398 7.35156H111.52V5.19141C111.52 5.19141 110.508 5 109.551 5C107.555 5 106.242 6.23047 106.242 8.41797V10.3594H104V12.875H106.242V19H108.977V12.875H111.027Z"
          fill="white"/>
    <path d="M139.629 8.66797C139.465 8.01172 138.945 7.49219 138.316 7.32812C137.141 7 132.492 7 132.492 7C132.492 7 127.816 7 126.641 7.32812C126.012 7.49219 125.492 8.01172 125.328 8.66797C125 9.81641 125 12.2773 125 12.2773C125 12.2773 125 14.7109 125.328 15.8867C125.492 16.543 126.012 17.0352 126.641 17.1992C127.816 17.5 132.492 17.5 132.492 17.5C132.492 17.5 137.141 17.5 138.316 17.1992C138.945 17.0352 139.465 16.543 139.629 15.8867C139.957 14.7109 139.957 12.2773 139.957 12.2773C139.957 12.2773 139.957 9.81641 139.629 8.66797ZM130.961 14.4922V10.0625L134.844 12.2773L130.961 14.4922Z"
          fill="white"/>
    <path d="M159.363 14.1328C160.238 13.5586 160.648 13.2305 160.292 12.5195C160.101 12.1367 159.527 11.8086 158.816 12.3828C158.816 12.3828 157.804 13.1758 156.218 13.1758C154.605 13.1758 153.62 12.3828 153.62 12.3828C152.882 11.7812 152.335 12.1367 152.116 12.5195C151.788 13.2305 152.171 13.5586 153.046 14.1328C153.812 14.625 154.851 14.8164 155.534 14.8711L154.96 15.4453C154.167 16.2383 153.429 17.0039 152.882 17.5234C152.116 18.2891 153.347 19.5195 154.14 18.7812L156.218 16.6758C157.011 17.4961 157.777 18.2617 158.296 18.7812C159.062 19.5469 160.32 18.3164 159.554 17.5234L157.476 15.4453L156.902 14.8711C157.585 14.8164 158.597 14.625 159.363 14.1328ZM152.663 8.55469C152.663 10.5234 154.249 12.1094 156.218 12.1094C158.159 12.1094 159.745 10.5234 159.745 8.55469C159.745 6.58594 158.159 5 156.218 5C154.249 5 152.663 6.58594 152.663 8.55469ZM154.468 8.55469C154.468 7.59766 155.234 6.80469 156.218 6.80469C157.175 6.80469 157.941 7.59766 157.941 8.55469C157.941 9.51172 157.175 10.3047 156.218 10.3047C155.234 10.3047 154.468 9.51172 154.468 8.55469Z"
          fill="white"/>
</svg>
